<svg id="dashboard" xmlns="http://www.w3.org/2000/svg" width="16" height="16.007" viewBox="0 0 16 16.007">
  <path id="dashboard-2" data-name="dashboard" d="M15.67,4.364c-.006-.006-.008-.015-.014-.021s-.015-.008-.021-.014a7.983,7.983,0,0,0-11.272,0c-.006.006-.015.008-.021.014s-.008.014-.014.021a8,8,0,1,0,11.341,0ZM10,16.4A6.388,6.388,0,0,1,5.012,14H8.224a2.371,2.371,0,0,0,3.552,0h3.212A6.388,6.388,0,0,1,10,16.4Zm-.8-4a.8.8,0,1,1,.8.8.8.8,0,0,1-.8-.8Zm6.728,0-.008,0H12.4a2.4,2.4,0,0,0-1.6-2.253V7.6a.8.8,0,1,0-1.6,0v2.547A2.4,2.4,0,0,0,7.6,12.4H4.08l-.008,0a6.345,6.345,0,0,1-.416-1.6H4.4a.8.8,0,1,0,0-1.6H3.656a6.361,6.361,0,0,1,1.3-3.118l.524.524A.8.8,0,1,0,6.606,5.474L6.082,4.95A6.362,6.362,0,0,1,9.2,3.656V4.4a.8.8,0,1,0,1.6,0V3.656A6.362,6.362,0,0,1,13.918,4.95l-.524.524a.8.8,0,0,0,1.131,1.131l.524-.524a6.361,6.361,0,0,1,1.3,3.118H15.6a.8.8,0,0,0,0,1.6h.744A6.345,6.345,0,0,1,15.928,12.4Z" transform="translate(-2 -2)" fill="#797f86"/>
</svg>
