<svg id="Componente_5_1" data-name="Componente 5 – 1" xmlns="http://www.w3.org/2000/svg" width="96" height="96" viewBox="0 0 96 96">
  <circle id="Elipse_27" data-name="Elipse 27" cx="48" cy="48" r="48" fill="#00c4df"/>
  <g id="Grupo_1160" data-name="Grupo 1160" transform="translate(8.809 35.229)">
    <path id="Caminho_451" data-name="Caminho 451" d="M-577.3,513.67a2.761,2.761,0,0,0,1.163-.678,4.508,4.508,0,0,0,.813-1.041,2.523,2.523,0,0,0,.332-.957c.03-.326-.091-.4-.137-.426a.443.443,0,0,0-.249-.063,1.306,1.306,0,0,0-.353.058,4.256,4.256,0,0,0-1.093.527,8.107,8.107,0,0,0-1.255,1.022,8.75,8.75,0,0,0-1.043,1.232,2,2,0,0,0,1.2.42A2.158,2.158,0,0,0-577.3,513.67Z" transform="translate(646.513 -501.373)" fill="#fff"/>
    <path id="Caminho_452" data-name="Caminho 452" d="M-775.872,514.448a.932.932,0,0,0-.343-.114,1.283,1.283,0,0,0-.21-.016,2.251,2.251,0,0,0-.357.031,3.624,3.624,0,0,0-.857.283A7.44,7.44,0,0,0-779.526,516a13.064,13.064,0,0,0-1.684,1.995,12.733,12.733,0,0,0-1.2,2.141,5.207,5.207,0,0,0-.477,1.808,1.015,1.015,0,0,0,.031.478c.057.064.105.116.141.154a.354.354,0,0,0,.145.027,1.482,1.482,0,0,0,.654-.223,7.255,7.255,0,0,0,1.555-1.267,22.747,22.747,0,0,0,1.921-2.278h0a26.9,26.9,0,0,0,2.013-3.163l.016-.024.151-.211.53-.893Z" transform="translate(825.95 -504.73)" fill="#fff"/>
    <path id="Caminho_453" data-name="Caminho 453" d="M-1064.406,444.23a2.09,2.09,0,0,0-1.206-1.072,2.112,2.112,0,0,0-.692-.117,2.11,2.11,0,0,0-.92.213,2.519,2.519,0,0,0-.926.8,4.235,4.235,0,0,0-.419-2.081,4.148,4.148,0,0,0-1.734-1.816,4.539,4.539,0,0,0-2.26-.6,4.8,4.8,0,0,0-.623.041,7.1,7.1,0,0,0-2.663.948,11.671,11.671,0,0,0-2.339,1.833,14.938,14.938,0,0,0-1.313,1.5,3.992,3.992,0,0,0-.648-2.152c-.01-.015-.019-.029-.03-.043a3.73,3.73,0,0,0-1.908-1.419c-.1-.032-.2-.062-.294-.089a2.354,2.354,0,0,0-.224-.617,2.234,2.234,0,0,0-1.784-1.216c-.067-.005-.126-.008-.187-.008a2.467,2.467,0,0,0-1.5.532,9.279,9.279,0,0,0,.5-1.613,2.67,2.67,0,0,0-.385-1.993,2.574,2.574,0,0,0-1.682-1.141,2.7,2.7,0,0,0-.529-.053,2.6,2.6,0,0,0-1.441.436,2.566,2.566,0,0,0-1.135,1.651,4.783,4.783,0,0,1-.248.7c-.149.354-.334.758-.552,1.2s-.468.932-.741,1.438l-.17.314a5.311,5.311,0,0,0-1.511-.217,6.777,6.777,0,0,0-2.928.723,10.4,10.4,0,0,0-2.4,1.586h0s-1.028.861-2,1.775a2.415,2.415,0,0,0,.15-1.364,2.56,2.56,0,0,0-1.024-1.616,5.682,5.682,0,0,0-3.283-1.187c-.092,0-.182-.006-.273-.006a7.694,7.694,0,0,0-3.327.816,12.277,12.277,0,0,0-2.51,1.633,13.828,13.828,0,0,1,1.07-1.167,7.1,7.1,0,0,1,1.771-1.335,2.592,2.592,0,0,0,1.155-.672,2.557,2.557,0,0,0,.707-1.3,2.547,2.547,0,0,0-.331-2.008,2.552,2.552,0,0,0-1.676-1.174,9.764,9.764,0,0,0-2.093-.227,11.272,11.272,0,0,0-4.766,1.118,17.623,17.623,0,0,0-3.909,2.529,2.975,2.975,0,0,0,.012-1.574,1.048,1.048,0,0,0-.035-.114l-.017-.049a1.04,1.04,0,0,0-.051-.121,2.875,2.875,0,0,0-1.86-1.726,2.3,2.3,0,0,0-.663-.1h0c-2.233,0-4.06,3.074-6.827,7.726a70.424,70.424,0,0,1-4.883,7.494,2.059,2.059,0,0,0-.144-.634,1.87,1.87,0,0,0-.862-.961,8.629,8.629,0,0,1,.386-.772c.015-.026.029-.054.042-.081l.013-.03,0-.01c.013-.021.027-.044.037-.062a2.094,2.094,0,0,0,.261-1.124,1.865,1.865,0,0,0,.364-.433,1.934,1.934,0,0,0,.234-1.362,2.042,2.042,0,0,0-.823-1.277,3.675,3.675,0,0,0-2.134-.734h-.106a4.715,4.715,0,0,0-2.113.531,7.319,7.319,0,0,0-1.685,1.178,9.829,9.829,0,0,0-1.35,1.527,8.9,8.9,0,0,0-.963,1.724,5.136,5.136,0,0,0-.427,1.912,3.3,3.3,0,0,0,.4,1.661,3,3,0,0,0,1.238,1.213,2.853,2.853,0,0,0,1.383.342h.059a3.028,3.028,0,0,0,1.445-.4c.137-.078.273-.163.406-.257a1.784,1.784,0,0,0,.35.237,2.918,2.918,0,0,0,1.381.366h.021c.021,0,.039,0,.059-.005-.089.064-.178.133-.266.19a5.7,5.7,0,0,1-2.662.7l-.033,0c-.247.027-.5.055-.76.089a3.354,3.354,0,0,0-2.513,1.61,4.918,4.918,0,0,0-.746,2.383,3.921,3.921,0,0,0,.657,2.436,2.723,2.723,0,0,0,2.325,1.206,3.561,3.561,0,0,0,.474-.033,10.293,10.293,0,0,0,5.932-2.6c1.378-1.177,3.174-3.606,5.527-7.5a6.257,6.257,0,0,0,.692,1.949c.008.013.015.027.023.04a2.588,2.588,0,0,0,1.161,1.041,2.718,2.718,0,0,0,1.126.245c.085,0,.173,0,.258-.012a2.769,2.769,0,0,0,1.286-.46,2.524,2.524,0,0,0,.988-1.323,19.338,19.338,0,0,1,.92-2.195c.378-.776.811-1.565,1.286-2.345q.286-.466.592-.927c-.036.083-.072.166-.107.249a23.548,23.548,0,0,0-1.221,3.621,14.09,14.09,0,0,0-.436,3.495,7.275,7.275,0,0,0,.712,3.2,3.013,3.013,0,0,0,2.2,1.773,3.8,3.8,0,0,0,.7.067,3.356,3.356,0,0,0,1.608-.4,3.287,3.287,0,0,0,1.527-1.744,2.659,2.659,0,0,0,.1-1.534,4.563,4.563,0,0,0,.569.368,4.114,4.114,0,0,0,2.069.526,4.452,4.452,0,0,0,2.14-.56,8.464,8.464,0,0,0,1.619-1.157l.019-.018c.041.075.083.148.126.217a2.494,2.494,0,0,0,.944.943,4.142,4.142,0,0,0,2.019.574,4.2,4.2,0,0,0,2.181-.622c.188-.113.374-.237.555-.372a4.536,4.536,0,0,0,.69.473l.032.017a4.4,4.4,0,0,0,2.06.5,5.479,5.479,0,0,0,2.974-.949q.369-.237.73-.509a3.807,3.807,0,0,0,1,.85,3.874,3.874,0,0,0,2.04.606,3.828,3.828,0,0,0,2.091-.647,8.058,8.058,0,0,0,1.525-1.3,16.245,16.245,0,0,0,1.3-1.595c.1-.136.194-.272.288-.407a4.3,4.3,0,0,0,.084.88,3.857,3.857,0,0,0,1.279,2.129,3.585,3.585,0,0,0,2.5.937,3.831,3.831,0,0,0,2.623-1.2q.281-.266.559-.563a5.37,5.37,0,0,0,.555.6l.013.012a5.3,5.3,0,0,0,3.666,1.223h.362a2.849,2.849,0,0,0,.547-.06l.019,0a9.649,9.649,0,0,0,4.881-2.27,26.534,26.534,0,0,0,4.709-5.083,2.7,2.7,0,0,0,.55-1.209,1.977,1.977,0,0,0,.392-.139,2.22,2.22,0,0,0,1.1-1.322A2.228,2.228,0,0,0-1064.406,444.23Zm-72.155,6.308a1.681,1.681,0,0,1-.8-.223.756.756,0,0,1-.284-.288,2.132,2.132,0,0,1-.212-.448,2.427,2.427,0,0,1-.11-.474l-.007.01a4.94,4.94,0,0,1-.62.7,3.838,3.838,0,0,1-.733.542,1.773,1.773,0,0,1-.849.239h-.03a1.586,1.586,0,0,1-.781-.191,1.721,1.721,0,0,1-.727-.707,2.052,2.052,0,0,1-.241-1.036,3.872,3.872,0,0,1,.329-1.436,7.583,7.583,0,0,1,.826-1.475,8.553,8.553,0,0,1,1.175-1.329,6.058,6.058,0,0,1,1.394-.976,3.455,3.455,0,0,1,1.545-.4h.07a2.428,2.428,0,0,1,1.412.485.79.79,0,0,1,.331.485.666.666,0,0,1-.071.476.609.609,0,0,1-.392.274.551.551,0,0,1-.131.016.738.738,0,0,1-.441-.167.862.862,0,0,0-.526-.17,1.739,1.739,0,0,0-.786.23,4.853,4.853,0,0,0-1.1.791,8.551,8.551,0,0,0-1,1.112,6.806,6.806,0,0,0-.718,1.169,2.4,2.4,0,0,0-.271.919.507.507,0,0,0,.018.215.31.31,0,0,0,.067.063.115.115,0,0,0,.055.011.649.649,0,0,0,.294-.108,3.868,3.868,0,0,0,.78-.641,11.039,11.039,0,0,0,.96-1.141,13.768,13.768,0,0,0,1-1.566c.017-.037.038-.077.055-.107s.039-.064.062-.1a.782.782,0,0,1,.477-.385.8.8,0,0,1,.226-.033.825.825,0,0,1,.4.108.8.8,0,0,1,.4.487.8.8,0,0,1-.075.626.8.8,0,0,0-.079.147l-.014.03a8.279,8.279,0,0,0-.575,1.219,4.98,4.98,0,0,0-.237.851,1.538,1.538,0,0,0-.024.479c0,.011,0,.02.005.029.051-.016.11-.038.146-.051a1.369,1.369,0,0,1,.468-.095.637.637,0,0,1,.624.4.987.987,0,0,1-.46,1.19l-.048.022A1.948,1.948,0,0,1-1136.561,450.537Zm19.4-.182a6.861,6.861,0,0,0-.177,2.583,3.453,3.453,0,0,0,.582,1.572,1.617,1.617,0,0,1,.339,1.6,2,2,0,0,1-.943,1.079,2.091,2.091,0,0,1-1.006.251,2.508,2.508,0,0,1-.467-.045,1.794,1.794,0,0,1-1.293-1.085,6.03,6.03,0,0,1-.581-2.65,12.806,12.806,0,0,1,.4-3.178,22.452,22.452,0,0,1,1.156-3.426,31.6,31.6,0,0,1,1.7-3.4,29.765,29.765,0,0,1,2.065-3.113c.478-.629.967-1.212,1.462-1.743-.2.09-.4.187-.59.29a14.463,14.463,0,0,0-1.51.933,16.213,16.213,0,0,0-1.32,1.038c-.4.354-.759.685-1.057.983a20.529,20.529,0,0,0-1.86,2.142c-.584.772-1.132,1.575-1.627,2.389s-.948,1.638-1.344,2.449a20.767,20.767,0,0,0-.982,2.35,1.251,1.251,0,0,1-.488.668,1.51,1.51,0,0,1-.7.252c-.046,0-.092.007-.137.007a1.465,1.465,0,0,1-.605-.133,1.311,1.311,0,0,1-.593-.536c-.993-1.8-.853-4.027.554-8.007-2.317,4.216-6.229,11.086-8.709,13.2a9.057,9.057,0,0,1-5.277,2.3,2.306,2.306,0,0,1-.3.021,1.461,1.461,0,0,1-1.274-.649,2.685,2.685,0,0,1-.44-1.665,3.675,3.675,0,0,1,.559-1.774,2.1,2.1,0,0,1,1.595-1.017c.263-.034.519-.062.769-.089a6.813,6.813,0,0,0,3.215-.9c2.84-1.843,5.619-6.516,8.07-10.639,2.342-3.937,4.226-7.109,5.738-7.109a1.042,1.042,0,0,1,.334.055c.4.081.744.424,1.045,1.05l.018.049a1.665,1.665,0,0,1-.091,1.144q-.488.886-.845,1.615c-.24.492-.508,1.066-.795,1.708s-.565,1.336-.821,2.046c-.123.307-.264.68-.421,1.115q-.181.494-.368,1.014c.357-.592.734-1.166,1.122-1.71.449-.63.909-1.232,1.365-1.789s.9-1.054,1.327-1.479a18.329,18.329,0,0,1,5.191-3.784,9.993,9.993,0,0,1,4.23-1,8.488,8.488,0,0,1,1.83.2,1.3,1.3,0,0,1,.864.607,1.291,1.291,0,0,1,.165,1.054,1.3,1.3,0,0,1-.366.684,1.312,1.312,0,0,1-.674.364,8.08,8.08,0,0,0-2.236,1.626,17.109,17.109,0,0,0-2.389,2.939,23.554,23.554,0,0,0-2.1,3.788A22.14,22.14,0,0,0-1117.163,450.355Zm49.776-2.542a25.281,25.281,0,0,1-4.484,4.851,8.37,8.37,0,0,1-4.272,2.006l-.074.014a1.653,1.653,0,0,1-.31.037h-.362a4.084,4.084,0,0,1-2.816-.9,3.652,3.652,0,0,1-1.115-1.9q-.014-.061-.027-.122l-.065.092a13.48,13.48,0,0,1-1.642,1.9,2.628,2.628,0,0,1-1.751.851,2.3,2.3,0,0,1-1.646-.61,2.574,2.574,0,0,1-.886-1.44,3.949,3.949,0,0,1,.124-1.833,12.277,12.277,0,0,1,.922-2.26c.421-.823.941-1.759,1.543-2.783a4.5,4.5,0,0,0,.66-1.412c.016-.122.029-.22.039-.295-.046-.013-.108-.029-.192-.047a1.234,1.234,0,0,0-.247-.019,6.062,6.062,0,0,0-.849.079q-.276.521-.575,1.067-.333.605-.635,1.133t-.56.954c-.059.1-.114.185-.164.263a1.632,1.632,0,0,1-.179.348,9.479,9.479,0,0,0-.612.91c-.249.409-.539.871-.861,1.375s-.679,1.029-1.061,1.562a15.053,15.053,0,0,1-1.195,1.47,6.792,6.792,0,0,1-1.282,1.094,2.575,2.575,0,0,1-1.4.445,2.631,2.631,0,0,1-1.391-.428,2.71,2.71,0,0,1-.839-.789,2.823,2.823,0,0,1-.421-.965,11.934,11.934,0,0,1-1.8,1.435,4.238,4.238,0,0,1-2.288.747,3.137,3.137,0,0,1-1.471-.36,2.944,2.944,0,0,1-1.185-1.181h0a6.208,6.208,0,0,1-1.334,1.1,2.943,2.943,0,0,1-1.528.442,2.911,2.911,0,0,1-1.417-.423,1.285,1.285,0,0,1-.466-.492,3.962,3.962,0,0,1-.37-.82,4.588,4.588,0,0,1-.208-1.1c-.007-.087-.01-.176-.011-.266q-.148.212-.311.427a9.284,9.284,0,0,1-1.176,1.284,7.172,7.172,0,0,1-1.373.983,3.2,3.2,0,0,1-1.534.406,2.854,2.854,0,0,1-1.45-.365,3.085,3.085,0,0,1-1.284-1.288,3.737,3.737,0,0,1-.406-1.885,7.2,7.2,0,0,1,.653-2.651,14.256,14.256,0,0,1,1.594-2.744,16.062,16.062,0,0,1,2.248-2.462,11.32,11.32,0,0,1,2.633-1.786,6.434,6.434,0,0,1,2.778-.691c.073,0,.145,0,.216,0a4.438,4.438,0,0,1,2.565.925,1.319,1.319,0,0,1,.544.818,1.092,1.092,0,0,1-.124.775.968.968,0,0,1-.639.427.864.864,0,0,1-.19.021,1.222,1.222,0,0,1-.738-.293,1.821,1.821,0,0,0-1.136-.379,3.541,3.541,0,0,0-1.553.435,9.388,9.388,0,0,0-2.158,1.5,16.441,16.441,0,0,0-1.958,2.107,13.194,13.194,0,0,0-1.418,2.231,4.739,4.739,0,0,0-.562,1.812c-.023.4.048.506.063.524a.669.669,0,0,0,.191.178.369.369,0,0,0,.189.045,1.454,1.454,0,0,0,.649-.221,7.528,7.528,0,0,0,1.543-1.224,21.229,21.229,0,0,0,1.875-2.158,26.166,26.166,0,0,0,1.953-2.968c.037-.075.076-.146.109-.2s.069-.113.113-.177a1.322,1.322,0,0,1,.816-.642,1.337,1.337,0,0,1,.356-.049,1.385,1.385,0,0,1,.692.193,1.345,1.345,0,0,1,.658.827,1.337,1.337,0,0,1-.144,1.048,1.7,1.7,0,0,0-.167.3l-.015.032a16.02,16.02,0,0,0-1.141,2.326,9.877,9.877,0,0,0-.485,1.643,3.154,3.154,0,0,0-.06.971.983.983,0,0,0,.064.253,1.489,1.489,0,0,0,.451-.141,5.048,5.048,0,0,0,1.323-1.046q.458-.428.907-.925a9.643,9.643,0,0,1,.385-1.16,16.051,16.051,0,0,1,1.545-2.876,16.359,16.359,0,0,1,2.237-2.574,9.475,9.475,0,0,1,2.413-1.669,5.512,5.512,0,0,1,2.387-.6,4.076,4.076,0,0,1,2.08.568l.718-1.333c.279-.519.537-1.018.763-1.482s.424-.891.583-1.267a5.952,5.952,0,0,0,.318-.923,1.307,1.307,0,0,1,.588-.86,1.346,1.346,0,0,1,.747-.23,1.436,1.436,0,0,1,.281.028,1.316,1.316,0,0,1,.867.59,1.4,1.4,0,0,1,.2,1.055,14.456,14.456,0,0,1-1.47,3.579c-.8,1.51-1.865,3.4-3.167,5.626l-.068.133a3.546,3.546,0,0,0-.225.394c-.084.168-.179.337-.283.5a10.766,10.766,0,0,0-1.259,3.341,2.7,2.7,0,0,0-.078,1.011,1.748,1.748,0,0,0,.069.261,1.663,1.663,0,0,0,.433-.139,5.036,5.036,0,0,0,1.322-1.046,14.915,14.915,0,0,0,1.65-1.828q.694-.9,1.286-1.682a2.343,2.343,0,0,1,.124-.213c.274-.432.555-.913.833-1.429s.538-1.045.774-1.579a16.648,16.648,0,0,0,.609-1.572,8.5,8.5,0,0,0,.337-1.345,1.7,1.7,0,0,1,.534-1.069,1.252,1.252,0,0,1,.826-.35c.027,0,.054,0,.08,0a.95.95,0,0,1,.77.551,1.6,1.6,0,0,1,.088,1.066,5.553,5.553,0,0,1,1.155.246,2.492,2.492,0,0,1,1.27.951,2.931,2.931,0,0,1,.405,2.06,7.469,7.469,0,0,1-1.056,2.668c-.6,1-1.07,1.8-1.4,2.389a7.445,7.445,0,0,0-.685,1.587,3.638,3.638,0,0,0-.156.7c.036-.013.077-.029.124-.049a3.481,3.481,0,0,0,.849-.6,13.667,13.667,0,0,0,1.4-1.493,21.441,21.441,0,0,0,1.485-2.062l.053-.123a13.274,13.274,0,0,1,1.135-2.056,13.772,13.772,0,0,1,1.762-2.159,10.394,10.394,0,0,1,2.084-1.635,5.832,5.832,0,0,1,2.185-.785,3.53,3.53,0,0,1,.459-.03,3.285,3.285,0,0,1,1.638.437,2.9,2.9,0,0,1,1.215,1.266,3.067,3.067,0,0,1,.264,1.783,4.305,4.305,0,0,1-.413,1.49,6.588,6.588,0,0,1-.862,1.346,5.81,5.81,0,0,1-1.211,1.1,5.739,5.739,0,0,1-1.479.724,8.048,8.048,0,0,1-.835.174,4.073,4.073,0,0,1-.653.05c-.136,0-.274-.006-.416-.018a4.377,4.377,0,0,1-1.2-.287,5.512,5.512,0,0,1-1.032-.541,8.537,8.537,0,0,0-.359.9,5.285,5.285,0,0,0-.245,1.05,2.681,2.681,0,0,0,.027.869,1.108,1.108,0,0,0,.294.583,1.626,1.626,0,0,0,1.209.448,3.072,3.072,0,0,0,.363-.022,6.866,6.866,0,0,0,2.381-.816,14.53,14.53,0,0,0,2.635-1.851,16.6,16.6,0,0,0,2.4-2.581,1.449,1.449,0,0,1,.708-.583,1.165,1.165,0,0,1,.365-.065.716.716,0,0,1,.3.066.977.977,0,0,1,.388.588.046.046,0,0,0,.007.007s0,0,0,0A1.237,1.237,0,0,1-1067.387,447.813Zm1.55-1.775c-.023.018-.046.034-.071.05l-.011.007a.889.889,0,0,1-.484.135.9.9,0,0,1-.864-1.152l-.012,0c.007-.018.019-.036.027-.054a.858.858,0,0,1,.382-.511.824.824,0,0,1,.164-.092c.013-.007.025-.016.037-.022a.831.831,0,0,1,.364-.084.849.849,0,0,1,.277.047.832.832,0,0,1,.479.426.792.792,0,0,1,.071.3A.958.958,0,0,1-1065.837,446.039Z" transform="translate(1143.467 -434.038)" fill="#fff"/>
  </g>
</svg>
