<svg xmlns="http://www.w3.org/2000/svg" width="53.117" height="59" viewBox="0 0 53.117 59">
  <path id="file-edit-alt" d="M55.244,45.394l-7.139-7.139a2.95,2.95,0,0,0-4.189,0L33.355,48.816a2.95,2.95,0,0,0-.856,2.094V58.05A2.95,2.95,0,0,0,35.45,61h7.139a2.95,2.95,0,0,0,2.094-.855L55.244,49.583a2.95,2.95,0,0,0,0-4.189ZM41.35,55.1H38.4V52.15l7.611-7.611,2.95,2.95Zm-17.7,0H11.85A2.95,2.95,0,0,1,8.9,52.15V10.85A2.95,2.95,0,0,1,11.85,7.9H26.6v8.85a8.85,8.85,0,0,0,8.85,8.85H44.3v2.95a2.95,2.95,0,0,0,5.9,0V22.473a3.865,3.865,0,0,0-.177-.8v-.266a3.157,3.157,0,0,0-.561-.826h0l-17.7-17.7h0a3.157,3.157,0,0,0-.826-.561.944.944,0,0,0-.265,0L29.727,2H11.85A8.85,8.85,0,0,0,3,10.85v41.3A8.85,8.85,0,0,0,11.85,61h11.8a2.95,2.95,0,0,0,0-5.9Zm8.85-43.04,7.64,7.64H35.45a2.95,2.95,0,0,1-2.95-2.95ZM17.75,37.4h17.7a2.95,2.95,0,1,0,0-5.9H17.75a2.95,2.95,0,1,0,0,5.9Zm0-11.8H20.7a2.95,2.95,0,1,0,0-5.9H17.75a2.95,2.95,0,1,0,0,5.9Zm5.9,17.7h-5.9a2.95,2.95,0,1,0,0,5.9h5.9a2.95,2.95,0,0,0,0-5.9Z" transform="translate(-3 -2)" fill="#ee2c4f"/>
</svg>
