<svg xmlns="http://www.w3.org/2000/svg" width="47.2" height="59" viewBox="0 0 47.2 59">
  <path id="file-graph" d="M18.75,25.6H21.7a2.95,2.95,0,0,0,0-5.9H18.75a2.95,2.95,0,1,0,0,5.9Zm15.371,7.039-4.936,6.348-2.561-2.3a2.949,2.949,0,0,0-4.277.35l-5.9,7.375a2.949,2.949,0,1,0,4.606,3.685L25,43.159l2.593,2.333a2.95,2.95,0,0,0,4.3-.382l6.884-8.85a2.95,2.95,0,1,0-4.658-3.621ZM51.163,22.468a2.976,2.976,0,0,0-.824-1.9l0-.006-17.7-17.7-.005,0a2.921,2.921,0,0,0-.844-.569c-.088-.041-.18-.065-.273-.1a2.9,2.9,0,0,0-.787-.159c-.062,0-.115-.036-.178-.036H12.85A8.86,8.86,0,0,0,4,10.85v41.3A8.86,8.86,0,0,0,12.85,61h29.5a8.86,8.86,0,0,0,8.85-8.85V22.65c0-.065-.032-.118-.037-.182ZM33.5,12.071,41.129,19.7H36.45a2.954,2.954,0,0,1-2.95-2.95ZM45.3,52.15a2.954,2.954,0,0,1-2.95,2.95H12.85A2.954,2.954,0,0,1,9.9,52.15V10.85A2.954,2.954,0,0,1,12.85,7.9H27.6v8.85a8.86,8.86,0,0,0,8.85,8.85H45.3Z" transform="translate(-4 -2)" fill="#ee2c4f"/>
</svg>
