<svg xmlns="http://www.w3.org/2000/svg" width="69" height="69" viewBox="0 0 69 69">
  <path id="puzzle-piece" d="M53.955,71.079H12.391A10.391,10.391,0,0,1,2,60.688V26.051A10.391,10.391,0,0,1,12.391,15.66h3.464A13.855,13.855,0,0,1,41.14,8.109a13.37,13.37,0,0,1,2.425,7.551H53.955a3.464,3.464,0,0,1,3.464,3.464V29.515A13.855,13.855,0,0,1,64.97,54.8a13.37,13.37,0,0,1-7.551,2.425h0V67.615A3.464,3.464,0,0,1,53.955,71.079ZM12.391,22.587a3.464,3.464,0,0,0-3.464,3.464V60.688a3.464,3.464,0,0,0,3.464,3.464h38.1V53.137A3.466,3.466,0,0,1,55.1,49.847a6.131,6.131,0,0,0,6.027-.8A6.675,6.675,0,0,0,62.684,38.8a6.546,6.546,0,0,0-7.516-1.905A3.466,3.466,0,0,1,50.561,33.6V22.587H39.477a3.464,3.464,0,0,1-3.464-4.607,6.131,6.131,0,0,0-.8-6.027,6.72,6.72,0,0,0-10.391-1.489,6.927,6.927,0,0,0-2.044,5.2,6.546,6.546,0,0,0,.45,2.321,3.464,3.464,0,0,1-3.291,4.607Z" transform="translate(-2 -2.079)" fill="#eaeef2"/>
</svg>
