<svg id="setting" xmlns="http://www.w3.org/2000/svg" width="16" height="16.288" viewBox="0 0 16 16.288">
  <path id="setting-2" data-name="setting" d="M16.549,10.68a.814.814,0,0,1,0-1.075l1.042-1.173a.814.814,0,0,0,.1-.953L16.061,4.662a.814.814,0,0,0-.871-.391l-1.531.309a.814.814,0,0,1-.936-.537l-.5-1.49A.814.814,0,0,0,11.452,2H8.195a.814.814,0,0,0-.814.554l-.456,1.49a.814.814,0,0,1-.936.537L4.416,4.272a.814.814,0,0,0-.814.391L1.973,7.48a.814.814,0,0,0,.081.953L3.089,9.605a.814.814,0,0,1,0,1.075L2.055,11.853a.814.814,0,0,0-.081.953L3.6,15.623a.814.814,0,0,0,.871.391L6,15.7a.814.814,0,0,1,.936.537l.5,1.49a.814.814,0,0,0,.814.554h3.257a.814.814,0,0,0,.774-.554l.5-1.49a.814.814,0,0,1,.936-.537l1.531.309a.814.814,0,0,0,.871-.391l1.629-2.817a.814.814,0,0,0-.1-.953Zm-1.213,1.091.651.733-1.042,1.808-.961-.2a2.443,2.443,0,0,0-2.809,1.629l-.309.912H8.781l-.293-.928A2.443,2.443,0,0,0,5.678,14.1l-.961.2L3.659,12.5l.651-.733a2.443,2.443,0,0,0,0-3.257l-.651-.733L4.7,5.982l.961.2A2.443,2.443,0,0,0,8.471,4.548l.309-.92h2.085l.309.928a2.443,2.443,0,0,0,2.809,1.629l.961-.2L15.987,7.8l-.651.733a2.443,2.443,0,0,0,0,3.241ZM9.823,6.886a3.257,3.257,0,1,0,3.257,3.257A3.257,3.257,0,0,0,9.823,6.886Zm0,4.886a1.629,1.629,0,1,1,1.629-1.629A1.629,1.629,0,0,1,9.823,11.771Z" transform="translate(-1.857 -1.999)" fill="#797f86"/>
</svg>
