<svg xmlns="http://www.w3.org/2000/svg" width="69" height="69" viewBox="0 0 69 69">
  <path id="signal-alt-3" d="M41.773,26.091H29.227a3.136,3.136,0,0,0-3.136,3.136V66.864A3.136,3.136,0,0,0,29.227,70H41.773a3.136,3.136,0,0,0,3.136-3.136V29.227A3.136,3.136,0,0,0,41.773,26.091ZM38.636,63.727H32.364V32.364h6.273ZM66.864,1H54.318a3.136,3.136,0,0,0-3.136,3.136V66.864A3.136,3.136,0,0,0,54.318,70H66.864A3.136,3.136,0,0,0,70,66.864V4.136A3.136,3.136,0,0,0,66.864,1ZM63.727,63.727H57.455V7.273h6.273ZM16.682,44.909H4.136A3.136,3.136,0,0,0,1,48.045V66.864A3.136,3.136,0,0,0,4.136,70H16.682a3.136,3.136,0,0,0,3.136-3.136V48.045A3.136,3.136,0,0,0,16.682,44.909ZM13.545,63.727H7.273V51.182h6.273Z" transform="translate(-1 -1)" fill="#eaeef2"/>
</svg>
