<svg xmlns="http://www.w3.org/2000/svg" xmlns:xlink="http://www.w3.org/1999/xlink" width="170" height="170" viewBox="0 0 170 170">
  <defs>
    <linearGradient id="linear-gradient" x1="0.5" y1="1" x2="0.5" y2="0.001" gradientUnits="objectBoundingBox">
      <stop offset="0" stop-color="#fff"/>
      <stop offset="0.23" stop-color="#fffcfd"/>
      <stop offset="0.36" stop-color="#fef4f7"/>
      <stop offset="0.47" stop-color="#fde6ed"/>
      <stop offset="0.57" stop-color="#fbd1de"/>
      <stop offset="0.67" stop-color="#f9b7cb"/>
      <stop offset="0.75" stop-color="#f797b3"/>
      <stop offset="0.83" stop-color="#f47097"/>
      <stop offset="0.91" stop-color="#f04476"/>
      <stop offset="0.98" stop-color="#ec1252"/>
      <stop offset="1" stop-color="#eb0045"/>
    </linearGradient>
    <linearGradient id="linear-gradient-2" x1="0.5" y1="1" x2="0.5" y2="-0.001" xlink:href="#linear-gradient"/>
  </defs>
  <g id="Grupo_1978" data-name="Grupo 1978" transform="translate(-348 -89)">
    <g id="Avatar" transform="translate(348 89)">
      <circle id="Elipse_27" data-name="Elipse 27" cx="85" cy="85" r="85" fill="#eb0045"/>
    </g>
    <g id="Grupo_1806" data-name="Grupo 1806" transform="translate(385.431 131.11)">
      <path id="Caminho_480" data-name="Caminho 480" d="M50.227,99a8.576,8.576,0,0,1-4.046-16.127,30.167,30.167,0,0,0,.186-53.136,8.576,8.576,0,1,1,8.185-15.065,47.319,47.319,0,0,1-.3,83.322A8.483,8.483,0,0,1,50.227,99Z" transform="translate(15.299 -13.502)" fill="url(#linear-gradient)"/>
      <path id="Caminho_479" data-name="Caminho 479" d="M40.162,98.884a8.482,8.482,0,0,1-4.027-1.007,47.319,47.319,0,0,1-.3-83.322,8.576,8.576,0,0,1,8.185,15.065,30.167,30.167,0,0,0,.186,53.136,8.576,8.576,0,0,1-4.046,16.127Z" transform="translate(-11.105 -13.385)" fill="url(#linear-gradient-2)"/>
      <path id="Caminho_478" data-name="Caminho 478" d="M78.358,14.608a8.614,8.614,0,0,0-6.544-.671,8.5,8.5,0,0,0-5.09,4.158L55.8,38.267h0L44.855,18.094a8.6,8.6,0,0,0-11.615-3.449A47.319,47.319,0,0,0,14.11,33.867a12.007,12.007,0,0,1,20.3,1.007h0v.112h0L48.1,60.286a8.539,8.539,0,0,0,7.458,4.493h0a8.539,8.539,0,0,0,7.458-4.493l13.7-25.3h0v-.112h0a12.007,12.007,0,0,1,20.341-.988A47.282,47.282,0,0,0,78.358,14.608Z" transform="translate(-8.507 -13.436)" fill="#fff"/>
    </g>
  </g>
</svg>
