<svg xmlns="http://www.w3.org/2000/svg" width="170" height="170" viewBox="0 0 170 170">
  <g id="Grupo_1176" data-name="Grupo 1176" transform="translate(-653 -20)">
    <g id="Avatar" transform="translate(653 20)">
      <circle id="Elipse_27" data-name="Elipse 27" cx="85" cy="85" r="85" fill="#00c4df"/>
      <g id="Grupo_1160" data-name="Grupo 1160" transform="translate(15.597 62.385)">
        <path id="Caminho_451" data-name="Caminho 451" d="M-575.892,516.11a4.88,4.88,0,0,0,2.06-1.2,7.985,7.985,0,0,0,1.441-1.844,4.463,4.463,0,0,0,.588-1.7c.053-.577-.162-.706-.242-.754a.787.787,0,0,0-.441-.111,2.315,2.315,0,0,0-.624.1,7.524,7.524,0,0,0-1.936.934,14.327,14.327,0,0,0-2.223,1.811,15.51,15.51,0,0,0-1.846,2.182,3.536,3.536,0,0,0,2.128.744A3.8,3.8,0,0,0-575.892,516.11Z" transform="translate(698.464 -494.334)" fill="#fff"/>
        <path id="Caminho_452" data-name="Caminho 452" d="M-770.464,514.548a1.673,1.673,0,0,0-.608-.2,2.278,2.278,0,0,0-.372-.029,4.071,4.071,0,0,0-.632.055,6.455,6.455,0,0,0-1.517.5,13.147,13.147,0,0,0-3.339,2.421,23.058,23.058,0,0,0-2.983,3.532,22.541,22.541,0,0,0-2.118,3.792,9.226,9.226,0,0,0-.844,3.2,1.783,1.783,0,0,0,.056.847c.1.113.186.206.25.272a.633.633,0,0,0,.257.048,2.631,2.631,0,0,0,1.157-.4,12.863,12.863,0,0,0,2.753-2.243,40.167,40.167,0,0,0,3.4-4.035h0a47.651,47.651,0,0,0,3.566-5.6l.027-.043.266-.374.939-1.58Z" transform="translate(859.143 -497.34)" fill="#fff"/>
        <path id="Caminho_453" data-name="Caminho 453" d="M-1003.463,452.086a3.7,3.7,0,0,0-2.136-1.9,3.731,3.731,0,0,0-1.225-.207,3.738,3.738,0,0,0-1.629.377,4.461,4.461,0,0,0-1.64,1.422,7.5,7.5,0,0,0-.741-3.684,7.345,7.345,0,0,0-3.072-3.216,8.037,8.037,0,0,0-4-1.061,8.557,8.557,0,0,0-1.1.072,12.571,12.571,0,0,0-4.716,1.679,20.688,20.688,0,0,0-4.142,3.245,26.677,26.677,0,0,0-2.326,2.654,7.07,7.07,0,0,0-1.147-3.812c-.017-.026-.034-.051-.053-.076a6.6,6.6,0,0,0-3.379-2.514c-.173-.057-.347-.109-.521-.157a4.17,4.17,0,0,0-.4-1.092,3.954,3.954,0,0,0-3.158-2.154c-.118-.009-.224-.014-.329-.014a4.366,4.366,0,0,0-2.658.942,16.459,16.459,0,0,0,.886-2.856,4.73,4.73,0,0,0-.682-3.529,4.557,4.557,0,0,0-2.978-2.02,4.779,4.779,0,0,0-.938-.094,4.6,4.6,0,0,0-2.552.773,4.54,4.54,0,0,0-2.008,2.923,8.429,8.429,0,0,1-.439,1.245c-.264.627-.593,1.343-.977,2.128s-.83,1.65-1.312,2.546l-.3.557a9.408,9.408,0,0,0-2.676-.384,12,12,0,0,0-5.186,1.281,18.408,18.408,0,0,0-4.249,2.81h0s-1.82,1.526-3.54,3.144a4.275,4.275,0,0,0,.265-2.416,4.532,4.532,0,0,0-1.812-2.861,10.059,10.059,0,0,0-5.814-2.1c-.162-.007-.321-.01-.482-.01a13.615,13.615,0,0,0-5.892,1.445,21.7,21.7,0,0,0-4.444,2.891,24.226,24.226,0,0,1,1.893-2.067,12.585,12.585,0,0,1,3.135-2.364,4.594,4.594,0,0,0,2.045-1.19,4.522,4.522,0,0,0,1.253-2.31,4.508,4.508,0,0,0-.585-3.555,4.52,4.52,0,0,0-2.968-2.078,17.309,17.309,0,0,0-3.706-.4,19.966,19.966,0,0,0-8.439,1.98,31.149,31.149,0,0,0-6.922,4.479,5.28,5.28,0,0,0,.02-2.787c-.017-.068-.038-.135-.061-.2l-.031-.086a2.032,2.032,0,0,0-.09-.214,5.092,5.092,0,0,0-3.293-3.057,4.094,4.094,0,0,0-1.173-.171h0c-3.954,0-7.191,5.443-12.089,13.682a124.823,124.823,0,0,1-8.647,13.27,3.649,3.649,0,0,0-.254-1.123,3.316,3.316,0,0,0-1.526-1.7,15.261,15.261,0,0,1,.685-1.366c.026-.047.051-.095.073-.144l.024-.053.009-.018c.022-.036.048-.079.064-.11a3.712,3.712,0,0,0,.463-1.991,3.28,3.28,0,0,0,.644-.766,3.414,3.414,0,0,0,.414-2.413,3.615,3.615,0,0,0-1.456-2.261,6.5,6.5,0,0,0-3.779-1.3c-.067,0-.128,0-.188,0a8.353,8.353,0,0,0-3.742.94,12.941,12.941,0,0,0-2.984,2.086,17.469,17.469,0,0,0-2.391,2.7,15.741,15.741,0,0,0-1.706,3.052,9.115,9.115,0,0,0-.755,3.385,5.868,5.868,0,0,0,.7,2.942,5.331,5.331,0,0,0,2.194,2.148,5.046,5.046,0,0,0,2.448.605h.106a5.351,5.351,0,0,0,2.557-.714,8.288,8.288,0,0,0,.719-.455,3.117,3.117,0,0,0,.62.42,5.161,5.161,0,0,0,2.446.648h.037c.037,0,.068-.009.105-.01-.157.113-.315.235-.471.336-1.348.874-2.759,1.029-4.716,1.244l-.058.006c-.438.048-.886.1-1.346.157a5.937,5.937,0,0,0-4.45,2.851,8.713,8.713,0,0,0-1.322,4.22,6.945,6.945,0,0,0,1.165,4.313,4.819,4.819,0,0,0,4.116,2.135,6.3,6.3,0,0,0,.84-.058,18.231,18.231,0,0,0,10.505-4.6c2.44-2.084,5.62-6.385,9.787-13.278a11.094,11.094,0,0,0,1.227,3.452c.013.024.027.047.04.071a4.589,4.589,0,0,0,2.057,1.843,4.815,4.815,0,0,0,1.993.433c.152,0,.306-.007.458-.022a4.9,4.9,0,0,0,2.277-.813,4.47,4.47,0,0,0,1.75-2.343,34.1,34.1,0,0,1,1.628-3.887c.67-1.375,1.436-2.771,2.279-4.152q.5-.825,1.047-1.641-.1.22-.19.441a41.916,41.916,0,0,0-2.164,6.412,25,25,0,0,0-.771,6.189,12.892,12.892,0,0,0,1.26,5.659,5.336,5.336,0,0,0,3.892,3.14,6.727,6.727,0,0,0,1.242.118,5.94,5.94,0,0,0,2.848-.713,5.815,5.815,0,0,0,2.7-3.088,4.719,4.719,0,0,0,.185-2.717,7.969,7.969,0,0,0,1.007.651,7.278,7.278,0,0,0,3.663.931,7.877,7.877,0,0,0,3.789-.992,14.936,14.936,0,0,0,2.867-2.048l.034-.031q.108.2.222.385a4.422,4.422,0,0,0,1.672,1.669,7.331,7.331,0,0,0,3.575,1.017,7.433,7.433,0,0,0,3.862-1.1q.5-.3.983-.659a8.007,8.007,0,0,0,1.223.838l.056.03a7.788,7.788,0,0,0,3.647.893,9.7,9.7,0,0,0,5.266-1.68q.654-.421,1.295-.9a6.725,6.725,0,0,0,1.763,1.506,6.861,6.861,0,0,0,3.613,1.074,6.779,6.779,0,0,0,3.7-1.146,14.231,14.231,0,0,0,2.7-2.3,28.656,28.656,0,0,0,2.3-2.824c.173-.241.344-.482.51-.721a7.627,7.627,0,0,0,.149,1.558,6.83,6.83,0,0,0,2.263,3.77,6.352,6.352,0,0,0,4.424,1.66,6.788,6.788,0,0,0,4.646-2.121q.5-.47.99-1a9.5,9.5,0,0,0,.983,1.058l.023.021a9.383,9.383,0,0,0,6.492,2.166h.64a5.076,5.076,0,0,0,.969-.106l.034-.007a17.086,17.086,0,0,0,8.644-4.02,46.957,46.957,0,0,0,8.34-9,4.78,4.78,0,0,0,.974-2.141,3.455,3.455,0,0,0,.694-.247,3.928,3.928,0,0,0,1.953-2.341A3.95,3.95,0,0,0-1003.463,452.086Zm-127.774,11.17a2.969,2.969,0,0,1-1.411-.4,1.345,1.345,0,0,1-.5-.51,3.772,3.772,0,0,1-.375-.794,4.254,4.254,0,0,1-.194-.84l-.013.018a8.813,8.813,0,0,1-1.1,1.238,6.836,6.836,0,0,1-1.3.959,3.145,3.145,0,0,1-1.5.424h-.053a2.816,2.816,0,0,1-1.384-.338,3.052,3.052,0,0,1-1.287-1.252,3.64,3.64,0,0,1-.427-1.835,6.869,6.869,0,0,1,.582-2.543,13.422,13.422,0,0,1,1.463-2.613,15.186,15.186,0,0,1,2.081-2.354,10.717,10.717,0,0,1,2.467-1.729,6.119,6.119,0,0,1,2.736-.7h.125a4.3,4.3,0,0,1,2.5.858,1.4,1.4,0,0,1,.587.86,1.181,1.181,0,0,1-.126.844,1.081,1.081,0,0,1-.695.485.975.975,0,0,1-.233.028,1.311,1.311,0,0,1-.779-.3,1.525,1.525,0,0,0-.931-.3,3.081,3.081,0,0,0-1.391.408,8.582,8.582,0,0,0-1.951,1.4,15.093,15.093,0,0,0-1.772,1.969,12.134,12.134,0,0,0-1.271,2.07,4.26,4.26,0,0,0-.481,1.627.851.851,0,0,0,.033.381.548.548,0,0,0,.118.111.2.2,0,0,0,.1.02,1.154,1.154,0,0,0,.522-.191,6.885,6.885,0,0,0,1.382-1.135,19.644,19.644,0,0,0,1.7-2.02,24.44,24.44,0,0,0,1.764-2.774c.031-.066.067-.135.1-.189s.068-.114.109-.177a1.389,1.389,0,0,1,.846-.681,1.426,1.426,0,0,1,.4-.058,1.463,1.463,0,0,1,.71.192,1.421,1.421,0,0,1,.707.862,1.41,1.41,0,0,1-.133,1.109,1.529,1.529,0,0,0-.14.261l-.025.053a14.718,14.718,0,0,0-1.017,2.158,8.929,8.929,0,0,0-.42,1.507,2.691,2.691,0,0,0-.042.848c0,.019.006.036.009.052.09-.029.194-.068.259-.091a2.415,2.415,0,0,1,.829-.168,1.127,1.127,0,0,1,1.1.7,1.749,1.749,0,0,1-.815,2.108l-.085.038A3.437,3.437,0,0,1-1131.237,463.255Zm34.351-.322a12.149,12.149,0,0,0-.313,4.575,6.106,6.106,0,0,0,1.031,2.784,2.865,2.865,0,0,1,.6,2.829,3.548,3.548,0,0,1-1.669,1.911,3.708,3.708,0,0,1-1.782.444,4.458,4.458,0,0,1-.828-.08,3.172,3.172,0,0,1-2.288-1.921,10.664,10.664,0,0,1-1.03-4.693,22.758,22.758,0,0,1,.706-5.629,39.731,39.731,0,0,1,2.048-6.067,56,56,0,0,1,3.01-6.02,52.867,52.867,0,0,1,3.657-5.512c.847-1.114,1.713-2.147,2.589-3.086q-.53.238-1.044.514a25.563,25.563,0,0,0-2.673,1.652,28.824,28.824,0,0,0-2.338,1.837c-.714.627-1.344,1.213-1.872,1.741a36.5,36.5,0,0,0-3.293,3.793c-1.034,1.367-2,2.79-2.882,4.231s-1.679,2.9-2.38,4.337a36.654,36.654,0,0,0-1.74,4.162,2.214,2.214,0,0,1-.865,1.183,2.67,2.67,0,0,1-1.243.446c-.082.008-.162.012-.244.012a2.589,2.589,0,0,1-1.072-.236,2.318,2.318,0,0,1-1.049-.948c-1.76-3.194-1.512-7.131.981-14.18-4.1,7.465-11.031,19.631-15.423,23.382a16.04,16.04,0,0,1-9.346,4.079,3.991,3.991,0,0,1-.539.038,2.587,2.587,0,0,1-2.257-1.15,4.749,4.749,0,0,1-.779-2.949,6.5,6.5,0,0,1,.99-3.142,3.713,3.713,0,0,1,2.824-1.8c.466-.06.92-.11,1.362-.159a12.067,12.067,0,0,0,5.694-1.593c5.029-3.265,9.949-11.539,14.29-18.84,4.145-6.973,7.484-12.589,10.16-12.589a1.848,1.848,0,0,1,.591.1c.712.143,1.318.751,1.85,1.858l.031.086a2.95,2.95,0,0,1-.161,2.026q-.864,1.569-1.5,2.861c-.426.871-.9,1.888-1.406,3.025s-1,2.365-1.455,3.623q-.325.817-.746,1.974-.32.875-.652,1.794c.633-1.048,1.3-2.064,1.987-3.027.8-1.116,1.61-2.182,2.417-3.169s1.6-1.867,2.35-2.62a32.449,32.449,0,0,1,9.193-6.7,17.7,17.7,0,0,1,7.49-1.77,14.977,14.977,0,0,1,3.24.354,2.294,2.294,0,0,1,1.53,1.075,2.285,2.285,0,0,1,.293,1.867,2.287,2.287,0,0,1-.648,1.211,2.315,2.315,0,0,1-1.194.645,14.306,14.306,0,0,0-3.958,2.88,30.235,30.235,0,0,0-4.23,5.2,41.723,41.723,0,0,0-3.725,6.709A39.124,39.124,0,0,0-1096.886,462.933Zm88.145-4.5a44.8,44.8,0,0,1-7.941,8.591,14.822,14.822,0,0,1-7.565,3.552l-.131.025a2.912,2.912,0,0,1-.55.067h-.64a7.23,7.23,0,0,1-4.987-1.589,6.47,6.47,0,0,1-1.975-3.359c-.016-.071-.031-.143-.046-.215l-.116.162a23.842,23.842,0,0,1-2.907,3.368,4.653,4.653,0,0,1-3.1,1.507,4.087,4.087,0,0,1-2.916-1.08,4.564,4.564,0,0,1-1.568-2.551,6.99,6.99,0,0,1,.22-3.245,21.766,21.766,0,0,1,1.633-4c.746-1.457,1.665-3.115,2.732-4.929a7.937,7.937,0,0,0,1.17-2.5c.029-.216.051-.39.069-.522-.081-.023-.191-.051-.339-.084a2.175,2.175,0,0,0-.437-.034,10.759,10.759,0,0,0-1.5.14q-.489.924-1.02,1.89-.59,1.072-1.124,2.006t-.993,1.69q-.156.258-.291.466a2.83,2.83,0,0,1-.317.616,16.745,16.745,0,0,0-1.084,1.612c-.442.724-.954,1.543-1.525,2.434s-1.2,1.823-1.879,2.766a26.5,26.5,0,0,1-2.116,2.6,12.032,12.032,0,0,1-2.27,1.937,4.557,4.557,0,0,1-2.486.789,4.658,4.658,0,0,1-2.463-.758,4.814,4.814,0,0,1-1.486-1.4,4.972,4.972,0,0,1-.744-1.708,21.142,21.142,0,0,1-3.193,2.541,7.5,7.5,0,0,1-4.051,1.323,5.556,5.556,0,0,1-2.6-.637,5.205,5.205,0,0,1-2.1-2.091h0a10.983,10.983,0,0,1-2.362,1.945,5.215,5.215,0,0,1-2.706.782,5.153,5.153,0,0,1-2.51-.75,2.273,2.273,0,0,1-.825-.871,7.02,7.02,0,0,1-.656-1.453,8.1,8.1,0,0,1-.368-1.945q-.018-.231-.02-.472-.263.375-.551.757a16.451,16.451,0,0,1-2.083,2.274,12.685,12.685,0,0,1-2.431,1.74,5.663,5.663,0,0,1-2.717.72,5.053,5.053,0,0,1-2.567-.646,5.465,5.465,0,0,1-2.275-2.281,6.629,6.629,0,0,1-.718-3.339,12.756,12.756,0,0,1,1.156-4.695,25.205,25.205,0,0,1,2.823-4.859,28.414,28.414,0,0,1,3.98-4.36,20.025,20.025,0,0,1,4.663-3.162,11.388,11.388,0,0,1,4.919-1.224c.128,0,.255,0,.383.008a7.857,7.857,0,0,1,4.542,1.638,2.336,2.336,0,0,1,.965,1.449,1.921,1.921,0,0,1-.221,1.373,1.715,1.715,0,0,1-1.13.756,1.515,1.515,0,0,1-.336.038,2.169,2.169,0,0,1-1.309-.519,3.222,3.222,0,0,0-2.011-.672,6.268,6.268,0,0,0-2.75.77,16.6,16.6,0,0,0-3.821,2.652,29.056,29.056,0,0,0-3.468,3.73,23.4,23.4,0,0,0-2.512,3.95,8.389,8.389,0,0,0-.995,3.209c-.042.707.086.9.111.928a1.2,1.2,0,0,0,.339.314.65.65,0,0,0,.333.08,2.584,2.584,0,0,0,1.15-.39,13.342,13.342,0,0,0,2.731-2.168,37.539,37.539,0,0,0,3.32-3.821,46.223,46.223,0,0,0,3.459-5.255c.066-.133.134-.258.192-.354s.123-.2.2-.314a2.345,2.345,0,0,1,1.447-1.137,2.359,2.359,0,0,1,.63-.087,2.448,2.448,0,0,1,1.225.342,2.385,2.385,0,0,1,1.167,1.465,2.368,2.368,0,0,1-.255,1.856,2.97,2.97,0,0,0-.294.532l-.027.057a28.351,28.351,0,0,0-2.021,4.12,17.47,17.47,0,0,0-.859,2.909,5.56,5.56,0,0,0-.105,1.72,1.847,1.847,0,0,0,.113.449,2.658,2.658,0,0,0,.8-.25,8.925,8.925,0,0,0,2.342-1.853q.812-.757,1.607-1.639a17.007,17.007,0,0,1,.682-2.054,28.4,28.4,0,0,1,2.735-5.093,29.058,29.058,0,0,1,3.96-4.559,16.793,16.793,0,0,1,4.274-2.956,9.754,9.754,0,0,1,4.227-1.066,7.22,7.22,0,0,1,3.684,1.006l1.272-2.361c.494-.919.95-1.8,1.351-2.624s.75-1.578,1.03-2.244a10.454,10.454,0,0,0,.563-1.635,2.315,2.315,0,0,1,1.042-1.523,2.384,2.384,0,0,1,1.322-.407,2.53,2.53,0,0,1,.5.051,2.323,2.323,0,0,1,1.536,1.044,2.48,2.48,0,0,1,.358,1.868,25.636,25.636,0,0,1-2.6,6.337c-1.416,2.673-3.3,6.025-5.608,9.962l-.12.236a6.414,6.414,0,0,0-.4.7c-.148.3-.317.6-.5.89a19.053,19.053,0,0,0-2.231,5.916,4.742,4.742,0,0,0-.137,1.79,2.94,2.94,0,0,0,.121.462,2.953,2.953,0,0,0,.767-.247,8.916,8.916,0,0,0,2.342-1.853,26.382,26.382,0,0,0,2.922-3.236q1.23-1.6,2.278-2.979a4.356,4.356,0,0,1,.22-.377c.486-.765.983-1.616,1.475-2.53s.952-1.851,1.372-2.8a29.61,29.61,0,0,0,1.077-2.784,14.968,14.968,0,0,0,.6-2.381,3.016,3.016,0,0,1,.945-1.892,2.22,2.22,0,0,1,1.464-.62c.047,0,.094,0,.141.006a1.681,1.681,0,0,1,1.364.976,2.835,2.835,0,0,1,.157,1.888,9.854,9.854,0,0,1,2.046.436,4.413,4.413,0,0,1,2.248,1.683,5.186,5.186,0,0,1,.718,3.648,13.209,13.209,0,0,1-1.871,4.724c-1.061,1.769-1.893,3.192-2.474,4.23a13.121,13.121,0,0,0-1.213,2.81,6.438,6.438,0,0,0-.276,1.241c.063-.024.136-.052.22-.087a6.184,6.184,0,0,0,1.5-1.071,24.292,24.292,0,0,0,2.485-2.644,38.187,38.187,0,0,0,2.63-3.652l.094-.218a23.478,23.478,0,0,1,2.011-3.641,24.318,24.318,0,0,1,3.12-3.824,18.448,18.448,0,0,1,3.688-2.9,10.346,10.346,0,0,1,3.872-1.39,6.224,6.224,0,0,1,.812-.054,5.816,5.816,0,0,1,2.9.774,5.136,5.136,0,0,1,2.151,2.242,5.435,5.435,0,0,1,.468,3.158,7.613,7.613,0,0,1-.732,2.638,11.644,11.644,0,0,1-1.525,2.383,10.293,10.293,0,0,1-2.144,1.95,10.154,10.154,0,0,1-2.621,1.282,14.206,14.206,0,0,1-1.478.309,7.261,7.261,0,0,1-1.157.089q-.36,0-.736-.032a7.735,7.735,0,0,1-2.121-.508,9.762,9.762,0,0,1-1.827-.958,15.129,15.129,0,0,0-.637,1.593,9.429,9.429,0,0,0-.434,1.859,4.81,4.81,0,0,0,.047,1.539,1.966,1.966,0,0,0,.521,1.032,2.876,2.876,0,0,0,2.141.794,5.465,5.465,0,0,0,.642-.04,12.18,12.18,0,0,0,4.217-1.444,25.793,25.793,0,0,0,4.665-3.278,29.468,29.468,0,0,0,4.256-4.571,2.568,2.568,0,0,1,1.252-1.033,2.075,2.075,0,0,1,.648-.115,1.271,1.271,0,0,1,.535.118,1.725,1.725,0,0,1,.686,1.041s.007.009.012.012,0,0,0,.008A2.2,2.2,0,0,1-1008.741,458.432Zm2.745-3.143a1.376,1.376,0,0,1-.125.088l-.02.012a1.574,1.574,0,0,1-.857.239,1.589,1.589,0,0,1-1.53-2.04l-.021-.006c.012-.032.033-.064.047-.1a1.52,1.52,0,0,1,.675-.905,1.434,1.434,0,0,1,.292-.163c.023-.012.044-.029.066-.039a1.472,1.472,0,0,1,.645-.149,1.5,1.5,0,0,1,.49.083,1.473,1.473,0,0,1,.848.755,1.419,1.419,0,0,1,.126.524A1.7,1.7,0,0,1-1006,455.289Z" transform="translate(1143.467 -434.038)" fill="#fff"/>
      </g>
    </g>
    <g id="Grupo_1161" data-name="Grupo 1161" transform="translate(131 -208)">
      <g id="Elipse_64" data-name="Elipse 64" transform="translate(652 358)" fill="#eaeef2" stroke="#fff" stroke-width="2">
        <circle cx="20" cy="20" r="20" stroke="none"/>
        <circle cx="20" cy="20" r="19" fill="none"/>
      </g>
      <g id="camera" transform="translate(663 326.333)">
        <g id="Grupo_1121" data-name="Grupo 1121" transform="translate(0 42.667)">
          <g id="Grupo_1120" data-name="Grupo 1120" transform="translate(0 0)">
            <circle id="Elipse_65" data-name="Elipse 65" cx="3.486" cy="3.486" r="3.486" transform="translate(5.514 4.816)" fill="#797f86"/>
            <path id="Caminho_449" data-name="Caminho 449" d="M16.5,44.917H14.121a1.119,1.119,0,0,1-.8-.33l-1.371-1.371a1.863,1.863,0,0,0-1.326-.549H7.371a1.863,1.863,0,0,0-1.326.549L4.674,44.587a1.119,1.119,0,0,1-.8.33H1.5a1.5,1.5,0,0,0-1.5,1.5v9.75a1.5,1.5,0,0,0,1.5,1.5h15a1.5,1.5,0,0,0,1.5-1.5v-9.75A1.5,1.5,0,0,0,16.5,44.917ZM9,55.417a4.5,4.5,0,1,1,4.5-4.5A4.5,4.5,0,0,1,9,55.417Zm6-6.75a.75.75,0,1,1,.75-.75A.751.751,0,0,1,15,48.667Z" transform="translate(0 -42.667)" fill="#797f86"/>
          </g>
        </g>
      </g>
    </g>
  </g>
</svg>
