<svg xmlns="http://www.w3.org/2000/svg" width="26" height="26.005" viewBox="0 0 26 26.005">
  <path id="bill" d="M11.75,13.051H15a1.3,1.3,0,1,0,0-2.6H13.7V9.8a1.3,1.3,0,0,0-2.6,0v.715a3.25,3.25,0,0,0,.65,6.435h1.3a.65.65,0,1,1,0,1.3H9.8a1.3,1.3,0,1,0,0,2.6h1.3v.65a1.3,1.3,0,0,0,2.6,0v-.715a3.25,3.25,0,0,0-.65-6.435h-1.3a.65.65,0,1,1,0-1.3ZM26.7,15H22.8V3.3A1.3,1.3,0,0,0,20.85,2.17l-3.9,2.236L13.05,2.17a1.3,1.3,0,0,0-1.3,0L7.85,4.406,3.95,2.17A1.3,1.3,0,0,0,2,3.3V24.1A3.9,3.9,0,0,0,5.9,28H24.1A3.9,3.9,0,0,0,28,24.1V16.3A1.3,1.3,0,0,0,26.7,15ZM5.9,25.4a1.3,1.3,0,0,1-1.3-1.3V5.55L7.2,7.032a1.4,1.4,0,0,0,1.3,0L12.4,4.8l3.9,2.236a1.4,1.4,0,0,0,1.3,0L20.2,5.55V24.1a3.9,3.9,0,0,0,.234,1.3Zm19.5-1.3a1.3,1.3,0,1,1-2.6,0V17.6h2.6Z" transform="translate(-2 -1.996)" fill="#d1d7de"/>
</svg>
