<svg xmlns="http://www.w3.org/2000/svg" width="30" height="30" viewBox="0 0 30 30">
  <path id="browser" d="M27.5,2h-15A4.5,4.5,0,0,0,8,6.5V8H6.5A4.5,4.5,0,0,0,2,12.5v15A4.5,4.5,0,0,0,6.5,32h15A4.5,4.5,0,0,0,26,27.5V26h1.5A4.5,4.5,0,0,0,32,21.5V6.5A4.5,4.5,0,0,0,27.5,2ZM23,27.5A1.5,1.5,0,0,1,21.5,29H6.5A1.5,1.5,0,0,1,5,27.5V17H23ZM23,14H5V12.5A1.5,1.5,0,0,1,6.5,11h15A1.5,1.5,0,0,1,23,12.5Zm6,7.5A1.5,1.5,0,0,1,27.5,23H26V12.5a4.5,4.5,0,0,0-.27-1.5H29ZM29,8H11V6.5A1.5,1.5,0,0,1,12.5,5h15A1.5,1.5,0,0,1,29,6.5Z" transform="translate(-2 -2)" fill="#d1d7de"/>
</svg>
