<svg xmlns="http://www.w3.org/2000/svg" width="260.961" height="260.961" viewBox="0 0 260.961 260.961">
  <g id="Grupo_514" data-name="Grupo 514" transform="translate(0 0)">
    <path id="Caminho_372" data-name="Caminho 372" d="M0,108.072a129.855,129.855,0,0,0,19.859,69.211l47.109-30.416A74.433,74.433,0,0,1,88.657,46.516L57.347,0A130.347,130.347,0,0,0,0,108.072Z" transform="translate(0 22.409)" fill="#a3a0fb"/>
    <path id="Caminho_373" data-name="Caminho 373" d="M73.134,0A129.869,129.869,0,0,0,0,22.409L31.31,68.925a74.4,74.4,0,0,1,116.207,60.19H203.6A130.475,130.475,0,0,0,73.134,0Z" transform="translate(57.347 0)" fill="#55d8fe"/>
    <path id="Caminho_374" data-name="Caminho 374" d="M42.638,1.366A74.418,74.418,0,0,1,0,68.665l24.347,50.521A130.489,130.489,0,0,0,98.7,1.366c0-.458-.012-.911-.016-1.366H42.6C42.612.456,42.638.908,42.638,1.366Z" transform="translate(162.261 129.115)" fill="#ff8373"/>
    <path id="Caminho_375" data-name="Caminho 375" d="M110.622,91.685a129.953,129.953,0,0,0,56.127-12.66L142.4,28.5a74.123,74.123,0,0,1-31.78,7.12A74.37,74.37,0,0,1,47.109,0L0,30.416A130.384,130.384,0,0,0,110.622,91.685Z" transform="translate(19.859 169.276)" fill="#ffba6a"/>
  </g>
</svg>
