<svg xmlns="http://www.w3.org/2000/svg" xmlns:xlink="http://www.w3.org/1999/xlink" viewBox="0 0 74.93 74.93"><defs><style>.cls-1{fill:none;stroke:#fff;stroke-miterlimit:10;stroke-width:2px;}.cls-2{fill:url(#linear-gradient);}.cls-3{fill:url(#linear-gradient-2);}.cls-4{fill:#fff;}</style><linearGradient id="linear-gradient" x1="52.74" y1="60.36" x2="52.74" y2="14.57" gradientUnits="userSpaceOnUse"><stop offset="0" stop-color="#fff"/><stop offset="0.23" stop-color="#fffcfd"/><stop offset="0.36" stop-color="#fef4f7"/><stop offset="0.47" stop-color="#fde6ed"/><stop offset="0.57" stop-color="#fbd1de"/><stop offset="0.67" stop-color="#f9b7cb"/><stop offset="0.75" stop-color="#f797b3"/><stop offset="0.83" stop-color="#f47097"/><stop offset="0.91" stop-color="#f04476"/><stop offset="0.98" stop-color="#ec1252"/><stop offset="1" stop-color="#eb0045"/></linearGradient><linearGradient id="linear-gradient-2" x1="22.19" y1="60.36" x2="22.19" y2="14.57" xlink:href="#linear-gradient"/></defs><g id="Layer_2" data-name="Layer 2"><g id="Layer_1-2" data-name="Layer 1"><path class="cls-1" d="M59.46,66.11,32.74,73.26A19.52,19.52,0,0,1,8.83,59.46L1.67,32.74A19.52,19.52,0,0,1,15.48,8.83L42.19,1.67A19.53,19.53,0,0,1,66.11,15.48l7.15,26.71A19.52,19.52,0,0,1,59.46,66.11Z"/><path class="cls-2" d="M47.25,60.36a4.6,4.6,0,0,1-2.17-8.65,16.18,16.18,0,0,0,.1-28.5,4.6,4.6,0,1,1,4.39-8.08,25.38,25.38,0,0,1-.16,44.69A4.55,4.55,0,0,1,47.25,60.36Z"/><path class="cls-3" d="M27.69,60.36a4.55,4.55,0,0,1-2.16-.54,25.38,25.38,0,0,1-.16-44.69,4.6,4.6,0,0,1,4.39,8.08,16.18,16.18,0,0,0,.1,28.5,4.6,4.6,0,0,1-2.17,8.65Z"/><path class="cls-4" d="M49.57,15.13a4.62,4.62,0,0,0-3.51-.36A4.56,4.56,0,0,0,43.33,17L37.47,27.82h0L31.6,17a4.61,4.61,0,0,0-6.23-1.85A25.38,25.38,0,0,0,15.11,25.46,6.44,6.44,0,0,1,26,26h0l0,.06,0,0,7.34,13.57a4.58,4.58,0,0,0,4,2.41h0a4.58,4.58,0,0,0,4-2.41l7.35-13.57v0l0-.06h0a6.44,6.44,0,0,1,10.91-.53A25.36,25.36,0,0,0,49.57,15.13Z"/></g></g></svg>