<svg xmlns="http://www.w3.org/2000/svg" xmlns:xlink="http://www.w3.org/1999/xlink" viewBox="0 0 346.07 177.71"><defs><style>.cls-1{fill:#2b325c;}.cls-2{fill:#fff;}.cls-3{fill:url(#linear-gradient);}.cls-4{fill:url(#linear-gradient-2);}.cls-5{fill:url(#linear-gradient-3);}</style><linearGradient id="linear-gradient" x1="63.8" y1="56.63" x2="81.07" y2="121.07" gradientUnits="userSpaceOnUse"><stop offset="0" stop-color="#ff004f"/><stop offset="1" stop-color="#b60048"/></linearGradient><linearGradient id="linear-gradient-2" x1="87.71" y1="111.74" x2="87.71" y2="65.96" gradientUnits="userSpaceOnUse"><stop offset="0" stop-color="#fff"/><stop offset="0.23" stop-color="#fffcfd"/><stop offset="0.36" stop-color="#fef4f7"/><stop offset="0.47" stop-color="#fde6ed"/><stop offset="0.57" stop-color="#fbd1de"/><stop offset="0.67" stop-color="#f9b7cb"/><stop offset="0.75" stop-color="#f797b3"/><stop offset="0.83" stop-color="#f47097"/><stop offset="0.91" stop-color="#f04476"/><stop offset="0.98" stop-color="#ec1252"/><stop offset="1" stop-color="#eb0045"/></linearGradient><linearGradient id="linear-gradient-3" x1="57.16" y1="111.74" x2="57.16" y2="65.96" xlink:href="#linear-gradient-2"/></defs><g id="Layer_2" data-name="Layer 2"><g id="Layer_1-2" data-name="Layer 1"><rect class="cls-1" width="346.07" height="177.71"/><path class="cls-2" d="M295.53,102.35a14.58,14.58,0,1,1,14.58-14.58A14.6,14.6,0,0,1,295.53,102.35Zm0-23.15a8.58,8.58,0,1,0,8.57,8.57A8.57,8.57,0,0,0,295.53,79.2Z"/><rect class="cls-2" x="170.88" y="72.7" width="6" height="30.25"/><circle class="cls-2" cx="173.88" cy="65.75" r="3.65"/><rect class="cls-2" x="183.89" y="62.35" width="6" height="40.6"/><path class="cls-2" d="M153.44,73.21a10.57,10.57,0,0,0-7.61,3.22,10.59,10.59,0,0,0-14-1,6.42,6.42,0,0,0-4.19-2v29.47h6V83.82a4.61,4.61,0,0,1,9.22,0v19.09h6V83.82a4.61,4.61,0,0,1,9.22,0v19.09h6V83.82A10.62,10.62,0,0,0,153.44,73.21Z"/><path class="cls-2" d="M223.48,87.77h0V73.36a6.47,6.47,0,0,0-5.18,3.28,14.58,14.58,0,1,0-.82,22.9v3.32h6V87.77Zm-14.57,8.58a8.58,8.58,0,1,1,8.57-8.58h0A8.59,8.59,0,0,1,208.91,96.35Z"/><path class="cls-2" d="M258.06,87.77h0v-8h0V73.39a6.46,6.46,0,0,0-5.17,3.26,14.58,14.58,0,1,0-.83,22.89V101a8.58,8.58,0,0,1-16.53,3.2L230,106.48a14.58,14.58,0,0,0,28.1-5.44V87.77Zm-14.57,8.58a8.58,8.58,0,1,1,8.57-8.59v0A8.59,8.59,0,0,1,243.49,96.35Z"/><path class="cls-2" d="M275.21,73.19a10.57,10.57,0,0,0-6.42,2.19,6.44,6.44,0,0,0-4.19-1.95V102.9h6V83.81A4.62,4.62,0,0,1,277.77,80l3.34-5A10.56,10.56,0,0,0,275.21,73.19Z"/><path class="cls-3" d="M94.42,117.49l-26.71,7.16a19.53,19.53,0,0,1-23.92-13.81L36.64,84.13a19.53,19.53,0,0,1,13.8-23.92l26.72-7.16a19.52,19.52,0,0,1,23.91,13.81l7.16,26.72A19.52,19.52,0,0,1,94.42,117.49Z"/><path class="cls-4" d="M82.21,111.74A4.59,4.59,0,0,1,80,103.1a16.19,16.19,0,0,0,.11-28.51,4.59,4.59,0,1,1,4.38-8.07,25.37,25.37,0,0,1-.16,44.68A4.55,4.55,0,0,1,82.21,111.74Z"/><path class="cls-5" d="M62.66,111.74a4.56,4.56,0,0,1-2.17-.54,25.36,25.36,0,0,1-.15-44.68,4.59,4.59,0,1,1,4.38,8.07,16.19,16.19,0,0,0,.1,28.51,4.59,4.59,0,0,1-2.16,8.64Z"/><path class="cls-2" d="M84.53,66.52a4.58,4.58,0,0,0-6.23,1.85L72.44,79.2h0L66.57,68.37a4.58,4.58,0,0,0-6.23-1.85A25.3,25.3,0,0,0,50.08,76.84,6.44,6.44,0,0,1,61,77.38h0l0,.07v0L68.39,91a4.6,4.6,0,0,0,4,2.41h0a4.6,4.6,0,0,0,4-2.41l7.34-13.58,0,0,0-.07h0a6.44,6.44,0,0,1,10.91-.54A25.36,25.36,0,0,0,84.53,66.52Z"/></g></g></svg>