<svg xmlns="http://www.w3.org/2000/svg" xmlns:xlink="http://www.w3.org/1999/xlink" viewBox="0 0 149.65 126.31"><defs><style>.cls-1{fill:url(#linear-gradient);}.cls-2{fill:url(#linear-gradient-2);}.cls-3{fill:url(#linear-gradient-3);}.cls-4{fill:#fff;}.cls-5{fill:#1f1f1f;}</style><linearGradient id="linear-gradient" x1="66.19" y1="4.25" x2="83.46" y2="68.69" gradientUnits="userSpaceOnUse"><stop offset="0" stop-color="#ff004f"/><stop offset="1" stop-color="#b60048"/></linearGradient><linearGradient id="linear-gradient-2" x1="90.1" y1="59.36" x2="90.1" y2="13.57" gradientUnits="userSpaceOnUse"><stop offset="0" stop-color="#fff"/><stop offset="0.23" stop-color="#fffcfd"/><stop offset="0.36" stop-color="#fef4f7"/><stop offset="0.47" stop-color="#fde6ed"/><stop offset="0.57" stop-color="#fbd1de"/><stop offset="0.67" stop-color="#f9b7cb"/><stop offset="0.75" stop-color="#f797b3"/><stop offset="0.83" stop-color="#f47097"/><stop offset="0.91" stop-color="#f04476"/><stop offset="0.98" stop-color="#ec1252"/><stop offset="1" stop-color="#eb0045"/></linearGradient><linearGradient id="linear-gradient-3" x1="59.55" y1="59.36" x2="59.55" y2="13.57" xlink:href="#linear-gradient-2"/></defs><g id="Layer_2" data-name="Layer 2"><g id="Layer_1-2" data-name="Layer 1"><path class="cls-1" d="M96.82,65.11,70.1,72.26a19.52,19.52,0,0,1-23.91-13.8L39,31.74A19.52,19.52,0,0,1,52.84,7.83L79.55.67a19.53,19.53,0,0,1,23.92,13.81l7.15,26.71A19.53,19.53,0,0,1,96.82,65.11Z"/><path class="cls-2" d="M84.6,59.36a4.6,4.6,0,0,1-2.16-8.65,16.18,16.18,0,0,0,.1-28.5,4.6,4.6,0,0,1,4.38-8.08,25.37,25.37,0,0,1-.15,44.69A4.56,4.56,0,0,1,84.6,59.36Z"/><path class="cls-3" d="M65.05,59.36a4.55,4.55,0,0,1-2.16-.54,25.38,25.38,0,0,1-.16-44.69,4.6,4.6,0,1,1,4.38,8.08,16.18,16.18,0,0,0,.11,28.5,4.6,4.6,0,0,1-2.17,8.65Z"/><path class="cls-4" d="M86.92,14.13A4.61,4.61,0,0,0,80.69,16L74.83,26.82h0L69,16a4.61,4.61,0,0,0-6.23-1.85A25.38,25.38,0,0,0,52.47,24.46,6.44,6.44,0,0,1,63.38,25h0l0,.06,0,0,7.34,13.57a4.58,4.58,0,0,0,4,2.41h0a4.58,4.58,0,0,0,4-2.41l7.35-13.57v0l0-.06h0a6.44,6.44,0,0,1,10.91-.53A25.32,25.32,0,0,0,86.92,14.13Z"/><circle class="cls-5" cx="37.95" cy="85.43" r="2.99"/><path class="cls-5" d="M137.7,115.44a12,12,0,1,1,12-12A12,12,0,0,1,137.7,115.44Zm0-19a7,7,0,1,0,7,7A7,7,0,0,0,137.7,96.46Z"/><rect class="cls-5" x="35.49" y="91.13" width="4.92" height="24.8"/><rect class="cls-5" x="46.15" y="82.64" width="4.92" height="33.29"/><path class="cls-5" d="M21.19,91.55A8.66,8.66,0,0,0,15,94.19a8.69,8.69,0,0,0-11.52-.85A5.27,5.27,0,0,0,0,91.74V115.9H4.92V100.25a3.79,3.79,0,0,1,7.57,0V115.9h4.92V100.25a3.78,3.78,0,1,1,7.56,0V115.9h4.92V100.25A8.71,8.71,0,0,0,21.19,91.55Z"/><path class="cls-5" d="M78.62,103.49h0V91.67a5.28,5.28,0,0,0-4.25,2.69,12,12,0,1,0-.67,18.77v2.73h4.92V103.49Zm-12,7a7,7,0,1,1,7-7h0A7,7,0,0,1,66.67,110.52Z"/><path class="cls-5" d="M107,103.49h0V97h0V91.69a5.28,5.28,0,0,0-4.24,2.68,12,12,0,1,0-.68,18.76v1.23A7,7,0,0,1,88.5,117l-4.57,1.84a12,12,0,0,0,23-4.46V103.5Zm-12,7a7,7,0,1,1,7-7v0A7,7,0,0,1,95,110.52Z"/><path class="cls-5" d="M121,91.53a8.65,8.65,0,0,0-5.27,1.8,5.27,5.27,0,0,0-3.43-1.6v24.16h4.92V100.24a3.78,3.78,0,0,1,5.87-3.15L125.87,93A8.64,8.64,0,0,0,121,91.53Z"/></g></g></svg>