<svg xmlns="http://www.w3.org/2000/svg" xmlns:xlink="http://www.w3.org/1999/xlink" viewBox="0 0 224.48 177.71"><defs><style>.cls-1{fill:#2b325c;}.cls-2{fill:#fff;}.cls-3{fill:url(#linear-gradient);}.cls-4{fill:url(#linear-gradient-2);}.cls-5{fill:url(#linear-gradient-3);}</style><linearGradient id="linear-gradient" x1="103.76" y1="29.89" x2="121.02" y2="94.33" gradientUnits="userSpaceOnUse"><stop offset="0" stop-color="#ff004f"/><stop offset="1" stop-color="#b60048"/></linearGradient><linearGradient id="linear-gradient-2" x1="127.66" y1="85" x2="127.66" y2="39.21" gradientUnits="userSpaceOnUse"><stop offset="0" stop-color="#fff"/><stop offset="0.23" stop-color="#fffcfd"/><stop offset="0.36" stop-color="#fef4f7"/><stop offset="0.47" stop-color="#fde6ed"/><stop offset="0.57" stop-color="#fbd1de"/><stop offset="0.67" stop-color="#f9b7cb"/><stop offset="0.75" stop-color="#f797b3"/><stop offset="0.83" stop-color="#f47097"/><stop offset="0.91" stop-color="#f04476"/><stop offset="0.98" stop-color="#ec1252"/><stop offset="1" stop-color="#eb0045"/></linearGradient><linearGradient id="linear-gradient-3" x1="97.11" y1="85" x2="97.11" y2="39.21" xlink:href="#linear-gradient-2"/></defs><g id="Layer_2" data-name="Layer 2"><g id="Layer_1-2" data-name="Layer 1"><rect class="cls-1" width="224.48" height="177.71"/><circle class="cls-2" cx="75.36" cy="111.13" r="2.99"/><path class="cls-2" d="M175.11,141.14a12,12,0,1,1,12-11.95A12,12,0,0,1,175.11,141.14Zm0-19a7,7,0,1,0,7,7A7,7,0,0,0,175.11,122.16Z"/><rect class="cls-2" x="72.9" y="116.83" width="4.92" height="24.8"/><rect class="cls-2" x="83.57" y="108.34" width="4.92" height="33.29"/><path class="cls-2" d="M58.6,117.25a8.68,8.68,0,0,0-6.24,2.64A8.68,8.68,0,0,0,40.85,119a5.29,5.29,0,0,0-3.44-1.6v24.17h4.93V126a3.78,3.78,0,0,1,7.56,0v15.66h4.92V126a3.79,3.79,0,0,1,7.57,0v15.66h4.92V126A8.71,8.71,0,0,0,58.6,117.25Z"/><path class="cls-2" d="M116,129.19h0V117.37a5.28,5.28,0,0,0-4.24,2.69,12,12,0,1,0-.68,18.77v2.73H116V129.19Zm-12,7a7,7,0,1,1,7-7h0A7,7,0,0,1,104.08,136.22Z"/><path class="cls-2" d="M144.39,129.19h0v-6.53h0v-5.26a5.27,5.27,0,0,0-4.24,2.68,11.95,11.95,0,1,0-7.72,21.07,11.82,11.82,0,0,0,7-2.31v1.23a7,7,0,0,1-13.55,2.63l-4.56,1.84A12,12,0,0,0,132.43,152a12,12,0,0,0,12-11.94V129.2Zm-12,7a7,7,0,1,1,7-7v0A7,7,0,0,1,132.43,136.22Z"/><path class="cls-2" d="M158.45,117.24a8.66,8.66,0,0,0-5.27,1.79,5.27,5.27,0,0,0-3.43-1.6V141.6h4.92V125.94a3.79,3.79,0,0,1,5.88-3.15l2.74-4.09A8.68,8.68,0,0,0,158.45,117.24Z"/><path class="cls-3" d="M134.38,90.75,107.66,97.9A19.52,19.52,0,0,1,83.75,84.1L76.59,57.38A19.52,19.52,0,0,1,90.4,33.47l26.71-7.16A19.53,19.53,0,0,1,141,40.12q3.57,13.35,7.16,26.71A19.53,19.53,0,0,1,134.38,90.75Z"/><path class="cls-4" d="M122.17,85A4.6,4.6,0,0,1,120,76.35a16.18,16.18,0,0,0,.1-28.5,4.6,4.6,0,0,1,4.39-8.08,25.38,25.38,0,0,1-.16,44.69A4.55,4.55,0,0,1,122.17,85Z"/><path class="cls-5" d="M102.61,85a4.55,4.55,0,0,1-2.16-.54,25.38,25.38,0,0,1-.16-44.69,4.6,4.6,0,0,1,4.39,8.08,16.18,16.18,0,0,0,.1,28.5A4.6,4.6,0,0,1,102.61,85Z"/><path class="cls-2" d="M124.49,39.77a4.62,4.62,0,0,0-6.24,1.85l-5.86,10.84h0l-5.86-10.84a4.62,4.62,0,0,0-6.24-1.85A25.38,25.38,0,0,0,90,50.1a6.44,6.44,0,0,1,10.92.53h0l0,.06,0,0,7.34,13.57a4.59,4.59,0,0,0,4,2.41h0a4.6,4.6,0,0,0,4-2.41l7.34-13.57v0l0-.06h0a6.44,6.44,0,0,1,10.91-.53A25.3,25.3,0,0,0,124.49,39.77Z"/></g></g></svg>