<svg xmlns="http://www.w3.org/2000/svg" width="30" height="30" viewBox="0 0 30 30">
  <g id="Grupo_1817" data-name="Grupo 1817" transform="translate(-692 -199)">
    <circle id="Elipse_27" data-name="Elipse 27" cx="15" cy="15" r="15" transform="translate(692 199)" fill="#00c4df"/>
    <g id="Grupo_1160" data-name="Grupo 1160" transform="translate(694.752 210.009)">
      <path id="Caminho_451" data-name="Caminho 451" d="M-578.548,511.494a.863.863,0,0,0,.364-.212,1.408,1.408,0,0,0,.254-.325.788.788,0,0,0,.1-.3c.009-.1-.028-.125-.043-.133a.139.139,0,0,0-.078-.02.409.409,0,0,0-.11.018,1.329,1.329,0,0,0-.342.165,2.537,2.537,0,0,0-.392.32,2.735,2.735,0,0,0-.326.385.625.625,0,0,0,.375.131A.675.675,0,0,0-578.548,511.494Z" transform="translate(600.178 -507.651)" fill="#fff"/>
      <path id="Caminho_452" data-name="Caminho 452" d="M-780.7,514.358a.293.293,0,0,0-.107-.036.4.4,0,0,0-.066-.005.705.705,0,0,0-.112.01,1.133,1.133,0,0,0-.268.088,2.325,2.325,0,0,0-.589.427,4.081,4.081,0,0,0-.526.623,3.979,3.979,0,0,0-.374.669,1.627,1.627,0,0,0-.149.565.318.318,0,0,0,.01.149l.044.048a.111.111,0,0,0,.045.008.464.464,0,0,0,.2-.07,2.268,2.268,0,0,0,.486-.4,7.1,7.1,0,0,0,.6-.712h0a8.4,8.4,0,0,0,.629-.988l0-.008.047-.066.166-.279Z" transform="translate(796.345 -511.321)" fill="#fff"/>
      <path id="Caminho_453" data-name="Caminho 453" d="M-1118.761,437.223a.654.654,0,0,0-.377-.335.66.66,0,0,0-.216-.036.66.66,0,0,0-.287.066.786.786,0,0,0-.289.251,1.324,1.324,0,0,0-.131-.65,1.3,1.3,0,0,0-.542-.567,1.418,1.418,0,0,0-.706-.187,1.5,1.5,0,0,0-.195.013,2.218,2.218,0,0,0-.832.3,3.648,3.648,0,0,0-.731.573,4.683,4.683,0,0,0-.41.468,1.247,1.247,0,0,0-.2-.673l-.009-.013a1.166,1.166,0,0,0-.6-.444l-.092-.028a.731.731,0,0,0-.07-.193.7.7,0,0,0-.557-.38l-.058,0a.771.771,0,0,0-.469.166,2.9,2.9,0,0,0,.156-.5.834.834,0,0,0-.12-.623.8.8,0,0,0-.526-.356.844.844,0,0,0-.165-.017.812.812,0,0,0-.45.136.8.8,0,0,0-.354.516,1.485,1.485,0,0,1-.078.22c-.047.111-.1.237-.172.376s-.146.291-.231.449l-.053.1a1.66,1.66,0,0,0-.472-.068,2.118,2.118,0,0,0-.915.226,3.247,3.247,0,0,0-.75.5h0s-.321.269-.625.555a.754.754,0,0,0,.047-.426.8.8,0,0,0-.32-.505,1.776,1.776,0,0,0-1.026-.371l-.085,0a2.4,2.4,0,0,0-1.04.255,3.836,3.836,0,0,0-.784.51,4.292,4.292,0,0,1,.334-.365,2.22,2.22,0,0,1,.553-.417.81.81,0,0,0,.361-.21.8.8,0,0,0,.221-.408.8.8,0,0,0-.1-.627.8.8,0,0,0-.524-.367,3.05,3.05,0,0,0-.654-.071,3.522,3.522,0,0,0-1.489.349,5.5,5.5,0,0,0-1.222.79.932.932,0,0,0,0-.492.365.365,0,0,0-.011-.036l-.005-.015a.33.33,0,0,0-.016-.038.9.9,0,0,0-.581-.539.72.72,0,0,0-.207-.03h0c-.7,0-1.269.961-2.133,2.414a22.011,22.011,0,0,1-1.526,2.342.642.642,0,0,0-.045-.2.585.585,0,0,0-.269-.3c.026-.06.064-.139.121-.241l.013-.025,0-.009,0,0,.011-.019a.655.655,0,0,0,.082-.351.585.585,0,0,0,.114-.135.6.6,0,0,0,.073-.426.638.638,0,0,0-.257-.4,1.148,1.148,0,0,0-.667-.23h-.033a1.474,1.474,0,0,0-.66.166,2.285,2.285,0,0,0-.526.368,3.066,3.066,0,0,0-.422.477,2.779,2.779,0,0,0-.3.539,1.6,1.6,0,0,0-.133.6,1.033,1.033,0,0,0,.125.519.94.94,0,0,0,.387.379.891.891,0,0,0,.432.107h.019a.946.946,0,0,0,.452-.126c.043-.024.085-.051.127-.08a.556.556,0,0,0,.109.074.912.912,0,0,0,.432.114h.007l.019,0c-.028.02-.056.041-.083.059a1.782,1.782,0,0,1-.832.22h-.01l-.238.028a1.048,1.048,0,0,0-.785.5,1.537,1.537,0,0,0-.233.745,1.226,1.226,0,0,0,.205.761.851.851,0,0,0,.727.377,1.112,1.112,0,0,0,.148-.01,3.217,3.217,0,0,0,1.854-.811,10.453,10.453,0,0,0,1.727-2.343,1.953,1.953,0,0,0,.216.609l.007.012a.809.809,0,0,0,.363.325.85.85,0,0,0,.352.077c.027,0,.054,0,.081,0a.865.865,0,0,0,.4-.144.79.79,0,0,0,.309-.414,6.024,6.024,0,0,1,.287-.686c.118-.243.253-.489.4-.733q.089-.146.185-.29l-.033.078a7.354,7.354,0,0,0-.382,1.132,4.4,4.4,0,0,0-.136,1.092,2.274,2.274,0,0,0,.222,1,.942.942,0,0,0,.687.554,1.189,1.189,0,0,0,.219.021,1.049,1.049,0,0,0,.5-.126,1.027,1.027,0,0,0,.477-.545.831.831,0,0,0,.033-.479,1.41,1.41,0,0,0,.178.115,1.285,1.285,0,0,0,.647.164,1.392,1.392,0,0,0,.669-.175,2.645,2.645,0,0,0,.506-.361l.006-.005c.013.023.026.046.039.068a.78.78,0,0,0,.3.295,1.294,1.294,0,0,0,.631.18,1.311,1.311,0,0,0,.682-.195,2.087,2.087,0,0,0,.173-.116,1.414,1.414,0,0,0,.216.148l.01.005a1.375,1.375,0,0,0,.644.158,1.712,1.712,0,0,0,.929-.3q.115-.074.228-.159a1.189,1.189,0,0,0,.311.266,1.211,1.211,0,0,0,.637.189,1.2,1.2,0,0,0,.653-.2,2.519,2.519,0,0,0,.477-.405,5.068,5.068,0,0,0,.405-.5l.09-.127a1.343,1.343,0,0,0,.026.275,1.2,1.2,0,0,0,.4.665,1.12,1.12,0,0,0,.781.293,1.2,1.2,0,0,0,.82-.374q.088-.083.175-.176a1.683,1.683,0,0,0,.173.187l0,0a1.656,1.656,0,0,0,1.146.382h.113a.892.892,0,0,0,.171-.019h.006a3.016,3.016,0,0,0,1.526-.709,8.294,8.294,0,0,0,1.472-1.589.845.845,0,0,0,.172-.378.617.617,0,0,0,.123-.044.694.694,0,0,0,.345-.413A.7.7,0,0,0-1118.761,437.223Zm-22.548,1.971a.524.524,0,0,1-.249-.07.237.237,0,0,1-.089-.09.665.665,0,0,1-.066-.14.76.76,0,0,1-.034-.148l0,0a1.551,1.551,0,0,1-.194.219,1.2,1.2,0,0,1-.229.169.554.554,0,0,1-.265.075h-.01a.5.5,0,0,1-.244-.06.538.538,0,0,1-.227-.221.642.642,0,0,1-.075-.324,1.21,1.21,0,0,1,.1-.449,2.366,2.366,0,0,1,.258-.461,2.673,2.673,0,0,1,.367-.415,1.893,1.893,0,0,1,.435-.305,1.08,1.08,0,0,1,.483-.124h.022a.759.759,0,0,1,.441.151.247.247,0,0,1,.1.152.208.208,0,0,1-.022.149.19.19,0,0,1-.123.086.172.172,0,0,1-.041,0,.231.231,0,0,1-.138-.052.269.269,0,0,0-.164-.053.543.543,0,0,0-.245.072,1.516,1.516,0,0,0-.344.247,2.68,2.68,0,0,0-.313.348,2.13,2.13,0,0,0-.224.365.751.751,0,0,0-.085.287.158.158,0,0,0,.006.067.092.092,0,0,0,.021.02.036.036,0,0,0,.017,0,.2.2,0,0,0,.092-.034,1.207,1.207,0,0,0,.244-.2,3.458,3.458,0,0,0,.3-.356,4.3,4.3,0,0,0,.311-.49c.005-.012.012-.024.017-.033l.019-.031a.245.245,0,0,1,.149-.12.248.248,0,0,1,.071-.01.257.257,0,0,1,.125.034.25.25,0,0,1,.125.152.249.249,0,0,1-.023.2.247.247,0,0,0-.025.046l0,.009a2.591,2.591,0,0,0-.18.381,1.55,1.55,0,0,0-.074.266.482.482,0,0,0-.007.15l0,.009.046-.016a.427.427,0,0,1,.146-.03.2.2,0,0,1,.195.124.309.309,0,0,1-.144.372l-.015.007A.607.607,0,0,1-1141.309,439.194Zm6.062-.057a2.141,2.141,0,0,0-.055.807,1.078,1.078,0,0,0,.182.491.505.505,0,0,1,.106.5.626.626,0,0,1-.295.337.654.654,0,0,1-.314.078.784.784,0,0,1-.146-.014.56.56,0,0,1-.4-.339,1.884,1.884,0,0,1-.182-.828,4.009,4.009,0,0,1,.125-.993,7.01,7.01,0,0,1,.361-1.071,9.873,9.873,0,0,1,.531-1.062,9.3,9.3,0,0,1,.645-.973c.149-.2.3-.379.457-.545q-.094.042-.184.091a4.528,4.528,0,0,0-.472.291,5.065,5.065,0,0,0-.412.324c-.126.111-.237.214-.33.307a6.409,6.409,0,0,0-.581.669c-.182.241-.354.492-.509.746s-.3.512-.42.765a6.455,6.455,0,0,0-.307.734.392.392,0,0,1-.153.209.471.471,0,0,1-.219.079l-.043,0a.458.458,0,0,1-.189-.042.41.41,0,0,1-.185-.167c-.31-.564-.267-1.258.173-2.5a20.131,20.131,0,0,1-2.722,4.126,2.83,2.83,0,0,1-1.649.72.712.712,0,0,1-.1.007.456.456,0,0,1-.4-.2.839.839,0,0,1-.138-.52,1.148,1.148,0,0,1,.175-.554.655.655,0,0,1,.5-.318l.24-.028a2.129,2.129,0,0,0,1-.281,11.023,11.023,0,0,0,2.522-3.325c.732-1.23,1.321-2.222,1.793-2.222a.325.325,0,0,1,.1.017c.126.025.233.133.326.328l.006.015a.521.521,0,0,1-.028.357q-.153.277-.264.5c-.075.154-.159.333-.248.534s-.177.417-.257.639q-.057.144-.132.348l-.115.317c.112-.185.229-.364.351-.534.141-.2.284-.385.427-.559s.282-.329.415-.462a5.728,5.728,0,0,1,1.622-1.183,3.123,3.123,0,0,1,1.322-.312,2.65,2.65,0,0,1,.572.062.406.406,0,0,1,.27.19.4.4,0,0,1,.052.329.4.4,0,0,1-.114.214.409.409,0,0,1-.211.114,2.523,2.523,0,0,0-.7.508,5.342,5.342,0,0,0-.747.918,7.369,7.369,0,0,0-.657,1.184A6.918,6.918,0,0,0-1135.247,439.137Zm15.555-.794a7.9,7.9,0,0,1-1.4,1.516,2.616,2.616,0,0,1-1.335.627l-.023,0a.511.511,0,0,1-.1.012h-.113a1.276,1.276,0,0,1-.88-.28,1.141,1.141,0,0,1-.348-.593l-.008-.038-.021.029a4.213,4.213,0,0,1-.513.594.821.821,0,0,1-.547.266.72.72,0,0,1-.514-.191.8.8,0,0,1-.277-.45,1.235,1.235,0,0,1,.039-.573,3.838,3.838,0,0,1,.288-.706c.132-.257.294-.55.482-.87a1.4,1.4,0,0,0,.206-.441l.012-.092-.06-.015a.381.381,0,0,0-.077-.006,1.9,1.9,0,0,0-.265.025q-.086.163-.18.334-.1.189-.2.354t-.175.3c-.018.03-.036.058-.051.082a.51.51,0,0,1-.056.109,2.974,2.974,0,0,0-.191.284c-.078.128-.168.272-.269.43s-.212.322-.332.488a4.69,4.69,0,0,1-.373.459,2.12,2.12,0,0,1-.4.342.805.805,0,0,1-.439.139.822.822,0,0,1-.435-.134.848.848,0,0,1-.262-.247.879.879,0,0,1-.131-.3,3.732,3.732,0,0,1-.563.449,1.324,1.324,0,0,1-.715.233.98.98,0,0,1-.46-.112.92.92,0,0,1-.37-.369h0a1.938,1.938,0,0,1-.417.343.92.92,0,0,1-.478.138.909.909,0,0,1-.443-.132.4.4,0,0,1-.146-.154,1.238,1.238,0,0,1-.116-.256,1.433,1.433,0,0,1-.065-.343q0-.041,0-.083c-.031.044-.063.089-.1.133a2.906,2.906,0,0,1-.367.4,2.245,2.245,0,0,1-.429.307,1,1,0,0,1-.479.127.892.892,0,0,1-.453-.114.965.965,0,0,1-.4-.4,1.17,1.17,0,0,1-.127-.589,2.251,2.251,0,0,1,.2-.828,4.446,4.446,0,0,1,.5-.857,5.014,5.014,0,0,1,.7-.769,3.537,3.537,0,0,1,.823-.558,2.01,2.01,0,0,1,.868-.216h.068a1.386,1.386,0,0,1,.8.289.412.412,0,0,1,.17.256.34.34,0,0,1-.039.242.3.3,0,0,1-.2.133.267.267,0,0,1-.059.007.382.382,0,0,1-.231-.092.569.569,0,0,0-.355-.119A1.107,1.107,0,0,0-1132,437a2.934,2.934,0,0,0-.674.468,5.137,5.137,0,0,0-.612.658,4.133,4.133,0,0,0-.443.7,1.483,1.483,0,0,0-.176.566c-.007.125.015.158.02.164a.211.211,0,0,0,.06.055.116.116,0,0,0,.059.014.455.455,0,0,0,.2-.069,2.354,2.354,0,0,0,.482-.383,6.635,6.635,0,0,0,.586-.674,8.168,8.168,0,0,0,.61-.927c.012-.023.024-.046.034-.063s.022-.035.035-.055a.413.413,0,0,1,.255-.2.418.418,0,0,1,.111-.015.433.433,0,0,1,.216.06.421.421,0,0,1,.206.259.418.418,0,0,1-.045.327.527.527,0,0,0-.052.094l0,.01a5,5,0,0,0-.357.727,3.093,3.093,0,0,0-.152.513.986.986,0,0,0-.019.3.307.307,0,0,0,.02.079.467.467,0,0,0,.141-.044,1.579,1.579,0,0,0,.413-.327q.143-.134.283-.289a3,3,0,0,1,.12-.362,5.005,5.005,0,0,1,.483-.9,5.107,5.107,0,0,1,.7-.8,2.961,2.961,0,0,1,.754-.522,1.722,1.722,0,0,1,.746-.188,1.274,1.274,0,0,1,.65.177l.224-.417c.087-.162.168-.318.238-.463s.133-.279.182-.4a1.849,1.849,0,0,0,.1-.288.409.409,0,0,1,.184-.269.421.421,0,0,1,.233-.072.448.448,0,0,1,.088.009.411.411,0,0,1,.271.184.437.437,0,0,1,.063.33,4.521,4.521,0,0,1-.459,1.118c-.25.472-.583,1.063-.99,1.758l-.021.042a1.1,1.1,0,0,0-.07.123c-.026.053-.056.105-.089.157a3.362,3.362,0,0,0-.394,1.044.843.843,0,0,0-.024.316.569.569,0,0,0,.022.082.521.521,0,0,0,.135-.044,1.573,1.573,0,0,0,.413-.327,4.663,4.663,0,0,0,.516-.571l.4-.526a.752.752,0,0,1,.039-.067c.086-.135.174-.285.26-.447s.168-.327.242-.494a5.165,5.165,0,0,0,.19-.491,2.664,2.664,0,0,0,.105-.42.531.531,0,0,1,.167-.334.391.391,0,0,1,.258-.109h.025a.3.3,0,0,1,.241.172.5.5,0,0,1,.028.333,1.739,1.739,0,0,1,.361.077.779.779,0,0,1,.4.3.916.916,0,0,1,.127.644,2.332,2.332,0,0,1-.33.834c-.187.312-.334.563-.437.747a2.322,2.322,0,0,0-.214.5,1.131,1.131,0,0,0-.049.219l.039-.015a1.091,1.091,0,0,0,.265-.189,4.271,4.271,0,0,0,.438-.467,6.717,6.717,0,0,0,.464-.644l.016-.038a4.152,4.152,0,0,1,.355-.642,4.3,4.3,0,0,1,.551-.675,3.252,3.252,0,0,1,.651-.511,1.823,1.823,0,0,1,.683-.245,1.1,1.1,0,0,1,.143-.009,1.027,1.027,0,0,1,.512.137.907.907,0,0,1,.38.4.958.958,0,0,1,.082.557,1.344,1.344,0,0,1-.129.466,2.066,2.066,0,0,1-.269.421,1.819,1.819,0,0,1-.378.344,1.794,1.794,0,0,1-.462.226,2.529,2.529,0,0,1-.261.054,1.279,1.279,0,0,1-.2.016q-.064,0-.13-.005a1.369,1.369,0,0,1-.375-.09,1.73,1.73,0,0,1-.322-.169,2.686,2.686,0,0,0-.112.281,1.656,1.656,0,0,0-.077.328.838.838,0,0,0,.008.272.346.346,0,0,0,.092.182.508.508,0,0,0,.378.14.964.964,0,0,0,.113-.007,2.146,2.146,0,0,0,.744-.255,4.54,4.54,0,0,0,.823-.578,5.19,5.19,0,0,0,.751-.807.453.453,0,0,1,.221-.182.364.364,0,0,1,.114-.02.225.225,0,0,1,.094.021.305.305,0,0,1,.121.184l0,0h0A.387.387,0,0,1-1119.692,438.343Zm.484-.555-.022.016,0,0a.277.277,0,0,1-.151.042.28.28,0,0,1-.27-.36h0c0-.006.006-.011.008-.017a.268.268,0,0,1,.119-.16.258.258,0,0,1,.051-.029l.012-.007a.26.26,0,0,1,.114-.026.264.264,0,0,1,.087.015.26.26,0,0,1,.15.133.251.251,0,0,1,.022.093A.3.3,0,0,1-1119.208,437.788Z" transform="translate(1143.467 -434.038)" fill="#fff"/>
    </g>
  </g>
</svg>
