<svg id="Componente_107_1" data-name="Componente 107 – 1" xmlns="http://www.w3.org/2000/svg" width="23" height="25" viewBox="0 0 23 25">
  <path id="bell" d="M20.841,15.449V11.624a7.218,7.218,0,0,0-6.015-7.109V3.2a1.2,1.2,0,1,0-2.406,0V4.514a7.218,7.218,0,0,0-6.015,7.109v3.825A3.609,3.609,0,0,0,4,18.841v2.406a1.2,1.2,0,0,0,1.2,1.2H8.98a4.812,4.812,0,0,0,9.287,0h3.777a1.2,1.2,0,0,0,1.2-1.2V18.841a3.609,3.609,0,0,0-2.406-3.392ZM8.812,11.624a4.812,4.812,0,1,1,9.624,0v3.609H8.812Zm4.812,12.029a2.406,2.406,0,0,1-2.069-1.2h4.138A2.406,2.406,0,0,1,13.624,23.653Zm7.218-3.609H6.406v-1.2a1.2,1.2,0,0,1,1.2-1.2H19.638a1.2,1.2,0,0,1,1.2,1.2Z" transform="translate(-4 -2)" fill="#797f86"/>
  <circle id="Elipse_74" data-name="Elipse 74" cx="5" cy="5" r="5" transform="translate(13 15)" fill="#eb0245"/>
</svg>
