<svg xmlns="http://www.w3.org/2000/svg" width="40" height="40" viewBox="0 0 40 40">
  <g id="Grupo_2062" data-name="Grupo 2062" transform="translate(-825 -500)">
    <g id="Elipse_86" data-name="Elipse 86" transform="translate(825 500)" fill="#fff" stroke="#eaeef2" stroke-width="1">
      <circle cx="20" cy="20" r="20" stroke="none"/>
      <circle cx="20" cy="20" r="19.5" fill="none"/>
    </g>
    <g id="logo_ref" transform="translate(830 514)">
      <g id="Grupo_1779" data-name="Grupo 1779">
        <path id="Caminho_467" data-name="Caminho 467" d="M1.3,11.471A5.068,5.068,0,0,1,2.847,7.747,5.111,5.111,0,0,1,6.571,6.2V8.455a2.813,2.813,0,0,0-2.124.892,2.955,2.955,0,0,0-.892,2.124v5.271H1.3Z" transform="translate(-1.3 -4.626)"/>
        <path id="Caminho_468" data-name="Caminho 468" d="M20.347,13.7a2.955,2.955,0,0,0,2.124.892A2.813,2.813,0,0,0,24.6,13.7h0l1.6,1.6h0a5.271,5.271,0,0,1-9-3.724,5.267,5.267,0,0,1,9-3.724,5.111,5.111,0,0,1,1.547,3.724,3.745,3.745,0,0,1-.079.761h-8.1A3.148,3.148,0,0,0,20.347,13.7Zm4.275-4.275A2.955,2.955,0,0,0,22.5,8.529a2.813,2.813,0,0,0-2.124.892,2.2,2.2,0,0,0-.472.629h5.245A6.661,6.661,0,0,0,24.622,9.421Z" transform="translate(-13.03 -4.7)"/>
        <g id="Grupo_1775" data-name="Grupo 1775" transform="translate(14.634)">
          <path id="Caminho_469" data-name="Caminho 469" d="M57.1,5.471a5.068,5.068,0,0,1,1.547-3.724A5.111,5.111,0,0,1,62.371.2V2.455a2.813,2.813,0,0,0-2.124.892,2.955,2.955,0,0,0-.892,2.124v6.871H57.1Z" transform="translate(-57.1 -0.2)"/>
        </g>
        <rect id="Retângulo_976" data-name="Retângulo 976" width="2.675" height="2.255" transform="translate(16.522 5.376)"/>
      </g>
      <g id="Grupo_1776" data-name="Grupo 1776" transform="translate(20.561 1.573)">
        <path id="Caminho_470" data-name="Caminho 470" d="M95.747,20.474A1.574,1.574,0,1,1,94.174,18.9a1.561,1.561,0,0,1,1.574,1.574" transform="translate(-89.217 -15.569)" fill="#fdcb00"/>
        <path id="Caminho_471" data-name="Caminho 471" d="M82.847,20.474A1.574,1.574,0,1,1,81.274,18.9a1.578,1.578,0,0,1,1.574,1.574" transform="translate(-79.7 -15.569)" fill="#fdcb00"/>
        <path id="Caminho_472" data-name="Caminho 472" d="M108.747,20.474a1.574,1.574,0,1,1-1.574-1.574,1.578,1.578,0,0,1,1.574,1.574" transform="translate(-98.808 -15.569)" fill="#fdcb00"/>
        <path id="Caminho_473" data-name="Caminho 473" d="M94.274,31.8A1.574,1.574,0,1,1,92.7,33.374,1.578,1.578,0,0,1,94.274,31.8" transform="translate(-89.291 -25.086)" fill="#fdcb00"/>
        <path id="Caminho_474" data-name="Caminho 474" d="M94.274,6.2A1.574,1.574,0,1,1,92.7,7.774,1.578,1.578,0,0,1,94.274,6.2" transform="translate(-89.291 -6.2)" fill="#fdcb00"/>
      </g>
    </g>
  </g>
</svg>
