<svg xmlns="http://www.w3.org/2000/svg" width="56" height="56" viewBox="0 0 56 56">
  <path id="usd-circle" d="M26.455,21.364H36.636a2.545,2.545,0,1,0,0-5.091H31.545V13.727a2.545,2.545,0,0,0-5.091,0v2.545a7.636,7.636,0,0,0,0,15.273h5.091a2.545,2.545,0,0,1,0,5.091H21.364a2.545,2.545,0,1,0,0,5.091h5.091v2.545a2.545,2.545,0,0,0,5.091,0V41.727a7.636,7.636,0,1,0,0-15.273H26.455a2.545,2.545,0,0,1,0-5.091ZM29,1A28,28,0,1,0,57,29,28,28,0,0,0,29,1Zm0,50.909A22.909,22.909,0,1,1,51.909,29,22.909,22.909,0,0,1,29,51.909Z" transform="translate(-1 -1)" fill="#eaeef2"/>
</svg>
